<?xml version="1.0" encoding="UTF-8" standalone="no"?>
<svg width="352px" height="375px" viewBox="0 0 352 375" version="1.1" xmlns="http://www.w3.org/2000/svg" xmlns:xlink="http://www.w3.org/1999/xlink">
    <!-- Generator: Sketch 3.6.1 (26313) - http://www.bohemiancoding.com/sketch -->
    <title>illustration</title>
    <desc>Created with Sketch.</desc>
    <defs>
        <rect id="path-1" x="0" y="0" width="352" height="375"></rect>
        <path id="path-3" d="M0,0.5 L336.048,0.5 L336.048,399 L0,399"></path>
        <path id="path-5" d="M0,0.5 L336.048,0.5 L336.048,399 L0,399 L0,0.5 Z"></path>
    </defs>
    <g id="Page-1" stroke="none" stroke-width="1" fill="none" fill-rule="evenodd">
        <g id="1600+" transform="translate(-290.000000, -2464.000000)">
            <g id="Offers" transform="translate(152.000000, 2302.000000)">
                <g id="offer-1" transform="translate(0.000000, 119.000000)">
                    <g id="illustration" transform="translate(138.000000, 43.000000)">
                        <mask id="mask-2" fill="white">
                            <use xlink:href="#path-1"></use>
                        </mask>
                        <use id="Mask" fill="#FFFFFF" xlink:href="#path-1"></use>
                        <g style="mix-blend-mode: multiply;" mask="url(#mask-2)">
                            <g transform="translate(8.000000, -8.000000)">
                                <path d="M2.5833,385.4134 L2.5833,292.5504 C2.5833,284.7554 8.9253,278.4134 16.7203,278.4134 L320.4103,278.4134 C328.2063,278.4134 334.5473,284.7554 334.5473,292.5504 L334.5473,385.4134 L2.5833,385.4134 Z" id="Fill-1" stroke="none" fill="#BBDEFB" fill-rule="evenodd"></path>
                                <path d="M320.4103,276.9136 L16.7203,276.9136 C8.0983,276.9136 1.0833,283.9286 1.0833,292.5506 L1.0833,383.9136 L1.0833,386.9136 L4.0833,386.9136 L333.0473,386.9136 L336.0473,386.9136 L336.0473,383.9136 L336.0473,292.5506 C336.0473,283.9286 329.0323,276.9136 320.4103,276.9136 M320.4103,279.9136 C327.3893,279.9136 333.0473,285.5716 333.0473,292.5506 L333.0473,383.9136 L4.0833,383.9136 L4.0833,292.5506 C4.0833,285.5716 9.7413,279.9136 16.7203,279.9136 L320.4103,279.9136" id="Fill-3" stroke="none" fill="#1665C0" fill-rule="evenodd"></path>
                                <path d="M19.3235,385.4134 L19.3235,234.6744 C19.3235,226.2234 26.1995,219.3474 34.6515,219.3474 L302.4795,219.3474 C310.9315,219.3474 317.8075,226.2234 317.8075,234.6744 L317.8075,385.4134 L19.3235,385.4134 Z" id="Fill-5" stroke="none" fill="#E2F2FD" fill-rule="evenodd"></path>
                                <path d="M302.4794,217.8469 L34.6514,217.8469 C25.3724,217.8469 17.8234,225.3959 17.8234,234.6749 L17.8234,383.9129 L17.8234,386.9129 L20.8234,386.9129 L316.3074,386.9129 L319.3074,386.9129 L319.3074,383.9129 L319.3074,234.6749 C319.3074,225.3959 311.7584,217.8469 302.4794,217.8469 M302.4794,220.8469 C310.1164,220.8469 316.3074,227.0379 316.3074,234.6749 L316.3074,383.9129 L20.8234,383.9129 L20.8234,234.6749 C20.8234,227.0379 27.0144,220.8469 34.6514,220.8469 L302.4794,220.8469" id="Fill-7" stroke="none" fill="#1665C0" fill-rule="evenodd"></path>
                                <g id="Group-21" opacity="0.4" stroke="none" stroke-width="1" fill="none" fill-rule="evenodd" transform="translate(20.000000, 220.000000)">
                                    <path d="M96.3846,0.8469 L0.8236,96.4079 L0.8236,108.2939 L108.2706,0.8469 L96.3846,0.8469 Z" id="Fill-9" fill="#FFFFFF"></path>
                                    <path d="M223.6365,0.8469 L60.4875,163.9129 L66.4305,163.9129 L229.5795,0.8469 L223.6365,0.8469 Z" id="Fill-11" fill="#FFFFFF"></path>
                                    <path d="M296.3074,117.6657 L250.0614,163.9127 L256.0044,163.9127 L296.3074,123.6087 L296.3074,117.6657 Z" id="Fill-13" fill="#FFFFFF"></path>
                                    <path d="M247.4723,0.8469 L84.3233,163.9129 L103.1543,163.9129 L266.3033,0.8469 L247.4723,0.8469 Z" id="Fill-15" fill="#FFFFFF"></path>
                                    <path d="M123.1348,0.8469 L0.8238,123.1579 L0.8238,150.0659 L150.0428,0.8469 L123.1348,0.8469 Z" id="Fill-17" fill="#FFFFFF"></path>
                                    <path d="M296.3074,66.9404 L199.3454,163.9134 L226.2534,163.9134 L296.3074,93.8484 L296.3074,66.9404 Z" id="Fill-19" fill="#FFFFFF"></path>
                                </g>
                                <path d="M302.4794,220.8469 L34.6514,220.8469 C27.0144,220.8469 20.8234,227.0379 20.8234,234.6749 L20.8234,398.9999 L316.3074,398.9999 L316.3074,234.6749 C316.3074,227.0379 310.1164,220.8469 302.4794,220.8469 L302.4794,220.8469 Z M302.3074,384.9999 L34.8234,384.9999 L34.8234,234.8469 L302.3074,234.8469 L302.3074,384.9999 Z" id="Fill-22" stroke="none" fill="#BBDEFB" fill-rule="evenodd"></path>
                                <path d="M38.2031,223.239 L304.5161,223.239 C307.4741,223.239 311.1181,224.627 313.8011,226.734 C311.2991,223.177 307.1711,220.847 302.4921,220.847 L34.6641,220.847 C27.0271,220.847 20.8361,227.038 20.8361,234.675 L20.8361,383.913 L23.2121,383.913 L23.2121,238.043 C23.2121,227.92 28.1211,223.239 38.2031,223.239" id="Fill-24" stroke="none" fill="#E2F2FD" fill-rule="evenodd"></path>
                                <path d="M287.567,223.239 L49.563,223.239 L49.563,313.803 L287.567,313.803 L287.567,223.239 Z" id="Fill-26" stroke="none" fill-opacity="0.5" fill="#64B5F7" fill-rule="evenodd"></path>
                                <path d="M17.8375,279.9136 L12.4485,280.6666 L12.4485,383.6166 L17.8375,383.6166 L17.8375,279.9136 Z" id="Fill-28" stroke="none" fill-opacity="0.5" fill="#64B5F7" fill-rule="evenodd"></path>
                                <path d="M324.6925,280.6953 L319.3035,279.9133 L319.3035,383.6163 L324.6925,383.6163 L324.6925,280.6953 Z" id="Fill-30" stroke="none" fill-opacity="0.5" fill="#64B5F7" fill-rule="evenodd"></path>
                                <path d="M90.8713,84.0088 C90.8713,87.2758 88.2233,89.9238 84.9563,89.9238 C81.6893,89.9238 79.0413,87.2758 79.0413,84.0088 C79.0413,80.7418 81.6893,78.0938 84.9563,78.0938 C88.2233,78.0938 90.8713,80.7418 90.8713,84.0088 L90.8713,84.0088 Z" id="Stroke-32" stroke="#FFD54F" stroke-width="3" fill="none"></path>
                                <path d="M328.2906,195.6193 C328.2906,199.0943 325.4736,201.9113 321.9986,201.9113 C318.5226,201.9113 315.7056,199.0943 315.7056,195.6193 C315.7056,192.1443 318.5226,189.3273 321.9986,189.3273 C325.4736,189.3273 328.2906,192.1443 328.2906,195.6193 L328.2906,195.6193 Z" id="Stroke-34" stroke="#BBDEFB" stroke-width="3" stroke-linejoin="round" stroke-dasharray="1.974,1.974" fill="none"></path>
                                <path d="M41.4804,191.8117 C41.4804,193.5417 40.0784,194.9437 38.3484,194.9437 C36.6194,194.9437 35.2174,193.5417 35.2174,191.8117 C35.2174,190.0817 36.6194,188.6797 38.3484,188.6797 C40.0784,188.6797 41.4804,190.0817 41.4804,191.8117" id="Fill-36" stroke="none" fill="#DDF8E5" fill-rule="evenodd"></path>
                                <path d="M260.264,95.6489 C260.264,96.8569 259.285,97.8369 258.076,97.8369 C256.868,97.8369 255.889,96.8569 255.889,95.6489 C255.889,94.4409 256.868,93.4609 258.076,93.4609 C259.285,93.4609 260.264,94.4409 260.264,95.6489" id="Fill-38" stroke="none" fill="#FFD54F" fill-rule="evenodd"></path>
                                <g id="Group-42" stroke="none" stroke-width="1" fill="none" fill-rule="evenodd">
                                    <mask id="mask-4" fill="white">
                                        <use xlink:href="#path-3"></use>
                                    </mask>
                                    <g id="Clip-41"></g>
                                    <path d="M8.1669,247.4014 C8.1669,249.6564 6.3389,251.4844 4.0839,251.4844 C1.8279,251.4844 -0.0001,249.6564 -0.0001,247.4014 C-0.0001,245.1464 1.8279,243.3184 4.0839,243.3184 C6.3389,243.3184 8.1669,245.1464 8.1669,247.4014" id="Fill-40" fill="#42A5F6" mask="url(#mask-4)"></path>
                                </g>
                                <path d="M307.0027,136.7116 L306.9747,146.5286" id="Stroke-43" stroke="#FBE9E7" stroke-width="4" stroke-linecap="round" fill="none"></path>
                                <path d="M311.8975,141.6341 L302.0805,141.6061" id="Stroke-45" stroke="#FBE9E7" stroke-width="4" stroke-linecap="round" fill="none"></path>
                                <path d="M99.7448,41.0643 L99.7308,45.9863" id="Stroke-47" stroke="#FBE9E7" stroke-width="3" stroke-linecap="round" fill="none"></path>
                                <path d="M102.1991,43.5325 L97.2771,43.5185" id="Stroke-49" stroke="#FBE9E7" stroke-width="3" stroke-linecap="round" fill="none"></path>
                                <path d="M280.8033,127.752 L280.8033,94.772" id="Stroke-51" stroke="#1665C0" stroke-width="3" stroke-linecap="round" fill="none"></path>
                                <path d="M280.8033,88.0363 L280.8033,79.9813" id="Stroke-53" stroke="#1665C0" stroke-width="3" stroke-linecap="round" fill="none"></path>
                                <path d="M280.8033,73.3294 L280.8033,70.1574" id="Stroke-55" stroke="#1665C0" stroke-width="3" stroke-linecap="round" fill="none"></path>
                                <path d="M56.2434,109.6007 L56.2434,101.5457" id="Stroke-57" stroke="#1665C0" stroke-width="3" stroke-linecap="round" fill="none"></path>
                                <path d="M56.2434,94.8487 L56.2434,91.6767" id="Stroke-59" stroke="#1665C0" stroke-width="3" stroke-linecap="round" fill="none"></path>
                                <path d="M168.1849,85.7374 C167.9289,85.7374 167.6739,85.7864 167.4319,85.8844 L92.9129,116.1604 C92.0259,116.5214 91.5189,117.4584 91.7029,118.3974 C91.8859,119.3364 92.7089,120.0134 93.6649,120.0134 L243.4659,120.0134 C244.4239,120.0134 245.2469,119.3344 245.4289,118.3934 C245.6109,117.4534 245.1009,116.5154 244.2119,116.1584 L168.9309,85.8814 C168.6919,85.7854 168.4379,85.7374 168.1849,85.7374 M168.1849,87.7374 L243.4659,118.0134 L93.6649,118.0134 L168.1849,87.7374" id="Fill-61" stroke="none" fill="#1665C0" fill-rule="evenodd"></path>
                                <path d="M32.7381,147.7011 C32.0911,154.2811 26.2311,159.0911 19.6511,158.4431 C13.0711,157.7961 8.2611,151.9371 8.9091,145.3571 C9.5561,138.7761 15.4151,133.9671 21.9961,134.6141 C28.5761,135.2621 33.3851,141.1211 32.7381,147.7011 L32.7381,147.7011 Z" id="Stroke-63" stroke="#FFD54F" stroke-width="5" stroke-linejoin="round" stroke-dasharray="1.979,1.979" fill="none"></path>
                                <path d="M227.0892,53.2172 C226.8532,55.6172 224.7162,57.3722 222.3152,57.1362 C219.9152,56.8992 218.1602,54.7622 218.3972,52.3622 C218.6332,49.9612 220.7702,48.2072 223.1702,48.4432 C225.5712,48.6792 227.3252,50.8172 227.0892,53.2172 L227.0892,53.2172 Z" id="Stroke-65" stroke="#DDF8E5" stroke-width="3" stroke-linejoin="round" stroke-dasharray="1.957,1.957" fill="none"></path>
                                <path d="M168.0242,101.9383 C162.6052,101.9383 157.4412,99.8893 153.4822,96.1683 C149.2212,92.1643 146.7772,86.5143 146.7772,80.6693 C146.7772,76.8713 149.8672,73.7803 153.6662,73.7803 C157.4642,73.7803 160.5552,76.8713 160.5552,80.6693 C160.5552,82.7583 161.3942,84.6973 162.9182,86.1293 C164.3302,87.4573 166.1072,88.1593 168.0562,88.1593 C168.2162,88.1593 168.3772,88.1543 168.5392,88.1453 C172.2242,87.9163 175.2922,84.8473 175.5222,81.1593 C175.7262,77.8593 173.7992,74.8493 170.7272,73.6703 C165.0032,71.4743 161.1572,65.8683 161.1572,59.7203 L161.1572,41.6323 C161.1572,37.8343 164.2472,34.7433 168.0452,34.7433 C171.8442,34.7433 174.9342,37.8343 174.9342,41.6323 L174.9342,59.7203 C174.9342,60.1953 175.2332,60.6423 175.6622,60.8073 C184.3822,64.1523 189.8522,72.6743 189.2722,82.0133 C188.6092,92.6863 180.0622,101.2333 169.3902,101.8953 C168.9342,101.9243 168.4772,101.9383 168.0242,101.9383" id="Fill-67" stroke="none" fill="#ECEFF1" fill-rule="evenodd"></path>
                                <path d="M168.0458,33.2435 C163.4198,33.2435 159.6568,37.0065 159.6568,41.6325 L159.6568,59.7205 C159.6568,66.4845 163.8898,72.6535 170.1898,75.0705 C172.6468,76.0135 174.1878,78.4235 174.0248,81.0675 C173.8448,83.9635 171.3408,86.4675 168.4438,86.6475 C168.3158,86.6555 168.1858,86.6595 168.0548,86.6595 C166.4958,86.6595 165.0748,86.0985 163.9458,85.0365 C162.7258,83.8905 162.0548,82.3395 162.0548,80.6695 C162.0548,76.0435 158.2918,72.2805 153.6658,72.2805 C149.0408,72.2805 145.2778,76.0435 145.2778,80.6695 C145.2778,86.9265 147.8938,92.9745 152.4548,97.2615 C156.6928,101.2445 162.2218,103.4385 168.0248,103.4385 C168.5098,103.4385 169.0008,103.4225 169.4848,103.3925 C180.9088,102.6835 190.0598,93.5325 190.7698,82.1065 C191.3848,72.1945 185.6328,63.1415 176.4348,59.4975 L176.4348,41.6325 C176.4348,37.0065 172.6718,33.2435 168.0458,33.2435 M168.0458,36.2435 C171.0218,36.2435 173.4348,38.6565 173.4348,41.6325 L173.4348,59.7205 C173.4348,60.8205 174.1138,61.8195 175.1248,62.2075 C183.2298,65.3165 188.3138,73.2395 187.7748,81.9205 C187.1598,91.8395 179.2158,99.7825 169.2968,100.3985 C168.8708,100.4245 168.4458,100.4385 168.0248,100.4385 C162.9738,100.4385 158.2158,98.5595 154.5098,95.0755 C150.5488,91.3535 148.2778,86.1025 148.2778,80.6695 C148.2778,77.6935 150.6898,75.2805 153.6658,75.2805 C156.6418,75.2805 159.0548,77.6935 159.0548,80.6695 C159.0548,83.1765 160.0618,85.5035 161.8908,87.2225 C163.5768,88.8075 165.7468,89.6595 168.0548,89.6595 C168.2458,89.6595 168.4368,89.6535 168.6298,89.6415 C173.0588,89.3665 176.7438,85.6825 177.0188,81.2525 C177.2638,77.2945 174.9518,73.6845 171.2638,72.2695 C166.1158,70.2945 162.6568,65.2515 162.6568,59.7205 L162.6568,41.6325 C162.6568,38.6565 165.0698,36.2435 168.0458,36.2435" id="Fill-69" stroke="none" fill="#1665C0" fill-rule="evenodd"></path>
                                <path d="M169.2978,96.8756 C168.8718,96.9026 168.4468,96.9156 168.0248,96.9156 C162.9748,96.9156 158.2168,95.0366 154.5098,91.5526 C151.1148,88.3616 148.9658,84.0456 148.4208,79.4556 C148.3308,79.8466 148.2778,80.2516 148.2778,80.6696 C148.2778,86.1026 150.5498,91.3536 154.5098,95.0756 C158.2168,98.5596 162.9748,100.4386 168.0248,100.4386 C168.4468,100.4386 168.8718,100.4246 169.2978,100.3986 C179.2158,99.7826 187.1608,91.8396 187.7758,81.9206 C187.8408,80.8816 187.8198,79.8546 187.7278,78.8446 C186.9028,88.5516 179.0658,96.2696 169.2978,96.8756" id="Fill-71" stroke="none" fill="#CFD8DC" fill-rule="evenodd"></path>
                                <path d="M171.5218,69.1756 C166.6188,66.2476 165.2538,65.6676 165.2538,51.3936 C165.2538,50.2586 162.6578,49.6036 162.6578,51.1386 L162.6578,59.7206 C162.6578,65.2516 166.1168,70.2946 171.2648,72.2696 C174.2018,73.3966 176.2618,75.9186 176.8568,78.8976 C176.9338,78.5146 176.9948,78.1266 177.0198,77.7296 C177.2648,73.7716 174.9888,71.2466 171.5218,69.1756" id="Fill-73" stroke="none" fill="#CFD8DC" fill-rule="evenodd"></path>
                                <path d="M189.2224,82.2546 L189.2224,62.5416" id="Stroke-75" stroke="#1665C0" stroke-width="3" stroke-linecap="round" fill="none"></path>
                                <path d="M189.2224,56.7906 L189.2224,53.2336" id="Stroke-77" stroke="#1665C0" stroke-width="3" stroke-linecap="round" fill="none"></path>
                                <mask id="mask-6" fill="white">
                                    <use xlink:href="#path-5"></use>
                                </mask>
                                <g id="Clip-80"></g>
                                <path d="M173.435,51.394 L162.672,51.394 L162.672,45.45 L173.435,45.45 L173.435,51.394 Z" id="Fill-79" stroke="none" fill="#CFD8DC" fill-rule="evenodd" mask="url(#mask-6)"></path>
                                <path d="M159.0154,45.0257 C153.3694,45.0257 148.7704,40.4527 148.7304,34.8157 L146.5334,12.3587 L146.5334,12.2857 C146.5334,6.6137 151.1474,1.9997 156.8194,1.9997 L179.2724,1.9997 C184.9444,1.9997 189.5584,6.6137 189.5584,12.2857 L189.5584,12.3587 L187.3614,34.8157 C187.3214,40.4527 182.7224,45.0257 177.0764,45.0257 L159.0154,45.0257 Z" id="Fill-81" stroke="none" fill="#1665C0" fill-rule="evenodd" mask="url(#mask-6)"></path>
                                <path d="M179.2724,0.5001 L156.8194,0.5001 C150.3204,0.5001 145.0334,5.7871 145.0334,12.2861 L145.0334,12.4321 L145.0474,12.5781 L147.2304,34.8961 C147.3144,41.3231 152.5694,46.5251 159.0154,46.5251 L177.0754,46.5251 C183.5224,46.5251 188.7764,41.3231 188.8614,34.8961 L191.0444,12.5781 L191.0584,12.4321 L191.0584,12.2861 C191.0584,5.7871 185.7714,0.5001 179.2724,0.5001 M179.2724,3.5001 C184.1044,3.5001 188.0584,7.4541 188.0584,12.2861 L185.8624,34.7391 C185.8624,39.5721 181.9084,43.5251 177.0754,43.5251 L159.0154,43.5251 C154.1834,43.5251 150.2294,39.5721 150.2294,34.7391 L148.0334,12.2861 C148.0334,7.4541 151.9864,3.5001 156.8194,3.5001 L179.2724,3.5001" id="Fill-82" stroke="none" fill="#1665C0" fill-rule="evenodd" mask="url(#mask-6)"></path>
                                <path d="M156.8192,3.5001 C151.9872,3.5001 148.0332,7.4541 148.0332,12.2861 L149.6912,29.2381 L175.4292,3.5001 L156.8192,3.5001 Z" id="Fill-83" stroke="none" fill="#FF8A65" fill-rule="evenodd" mask="url(#mask-6)"></path>
                                <path d="M188.0585,12.2861 C188.0585,7.4541 184.1045,3.5001 179.2725,3.5001 L175.4295,3.5001 L149.6915,29.2381 L150.2295,34.7391 C150.2295,39.5721 154.1835,43.5251 159.0155,43.5251 L160.6615,43.5251 L187.6415,16.5451 L188.0585,12.2861 Z" id="Fill-84" stroke="none" fill="#42A5F6" fill-rule="evenodd" mask="url(#mask-6)"></path>
                                <path d="M185.862,34.7395 L187.642,16.5455 L160.662,43.5255 L177.076,43.5255 C181.908,43.5255 185.862,39.5715 185.862,34.7395" id="Fill-85" stroke="none" fill="#FF8A65" fill-rule="evenodd" mask="url(#mask-6)"></path>
                                <path d="M186.7405,7.6788 L184.3775,31.6738 C184.3775,36.1018 180.7545,39.7248 176.3265,39.7248 L159.7795,39.7248 C155.3515,39.7248 151.7285,36.1018 151.7285,31.6738 L149.3655,7.6788 C148.5315,9.0218 148.0405,10.5978 148.0405,12.2858 L150.2365,34.7398 C150.2365,39.5718 154.1905,43.5258 159.0225,43.5258 L177.0835,43.5258 C181.9155,43.5258 185.8695,39.5718 185.8695,34.7398 L188.0655,12.2858 C188.0655,10.5978 187.5745,9.0218 186.7405,7.6788" id="Fill-86" stroke="none" fill-opacity="0.7" fill="#CBD5D8" fill-rule="evenodd" style="mix-blend-mode: multiply;" mask="url(#mask-6)"></path>
                                <path d="M149.4803,94.3653 L167.9203,86.8763" id="Stroke-87" stroke="#1665C0" stroke-width="2" stroke-linecap="round" stroke-linejoin="round" fill="none" mask="url(#mask-6)"></path>
                                <path d="M56.1468,132.9857 L56.1468,122.3237 C56.1468,118.6247 59.1558,115.6157 62.8548,115.6157 L274.2758,115.6157 C277.9748,115.6157 280.9838,118.6247 280.9838,122.3237 L280.9838,132.9857 L56.1468,132.9857 Z" id="Fill-88" stroke="none" fill="#ECEFF1" fill-rule="evenodd" mask="url(#mask-6)"></path>
                                <path d="M274.2758,114.1157 L62.8548,114.1157 C58.3288,114.1157 54.6468,117.7977 54.6468,122.3237 L54.6468,131.4857 L54.6468,134.4857 L57.6468,134.4857 L279.4838,134.4857 L282.4838,134.4857 L282.4838,131.4857 L282.4838,122.3237 C282.4838,117.7977 278.8018,114.1157 274.2758,114.1157 M274.2758,117.1157 C277.1528,117.1157 279.4838,119.4477 279.4838,122.3237 L279.4838,131.4857 L57.6468,131.4857 L57.6468,122.3237 C57.6468,119.4477 59.9788,117.1157 62.8548,117.1157 L274.2758,117.1157" id="Fill-89" stroke="none" fill="#1665C0" fill-rule="evenodd" mask="url(#mask-6)"></path>
                                <path d="M274.7431,117.1157 L62.2611,117.1157 C59.6771,117.1157 57.5831,119.2097 57.5831,121.7937 L57.5831,124.0387 C57.5831,121.4557 59.6771,119.3607 62.2611,119.3607 L274.7431,119.3607 C277.3261,119.3607 279.4211,121.4557 279.4211,124.0387 L279.4211,121.7937 C279.4211,119.2097 277.3261,117.1157 274.7431,117.1157" id="Fill-90" stroke="none" fill="#FFFFFF" fill-rule="evenodd" mask="url(#mask-6)"></path>
                                <path d="M69.0773,123.1781 C69.0773,124.7121 67.8333,125.9561 66.2993,125.9561 C64.7653,125.9561 63.5223,124.7121 63.5223,123.1781 C63.5223,121.6441 64.7653,120.4001 66.2993,120.4001 C67.8333,120.4001 69.0773,121.6441 69.0773,123.1781" id="Fill-91" stroke="none" fill="#1665C0" fill-rule="evenodd" mask="url(#mask-6)"></path>
                                <path d="M78.4057,123.1781 C78.4057,124.7121 77.1617,125.9561 75.6277,125.9561 C74.0937,125.9561 72.8507,124.7121 72.8507,123.1781 C72.8507,121.6441 74.0937,120.4001 75.6277,120.4001 C77.1617,120.4001 78.4057,121.6441 78.4057,123.1781" id="Fill-92" stroke="none" fill="#1665C0" fill-rule="evenodd" mask="url(#mask-6)"></path>
                                <path d="M87.734,123.1781 C87.734,124.7121 86.49,125.9561 84.956,125.9561 C83.422,125.9561 82.179,124.7121 82.179,123.1781 C82.179,121.6441 83.422,120.4001 84.956,120.4001 C86.49,120.4001 87.734,121.6441 87.734,123.1781" id="Fill-93" stroke="none" fill="#1665C0" fill-rule="evenodd" mask="url(#mask-6)"></path>
                                <path d="M56.147,129.986 L280.984,129.986 L280.984,305.052 L56.147,305.052 L56.147,129.986 Z" id="Fill-94" stroke="none" fill="#FFFFFF" fill-rule="evenodd" mask="url(#mask-6)"></path>
                                <path d="M282.4842,128.4857 L279.4842,128.4857 L57.6472,128.4857 L54.6472,128.4857 L54.6472,131.4857 L54.6472,303.5517 L54.6472,306.5517 L57.6472,306.5517 L279.4842,306.5517 L282.4842,306.5517 L282.4842,303.5517 L282.4842,131.4857 L282.4842,128.4857 Z M279.4842,303.5517 L57.6472,303.5517 L57.6472,131.4857 L279.4842,131.4857 L279.4842,303.5517 Z" id="Fill-95" stroke="none" fill="#1665C0" fill-rule="evenodd" mask="url(#mask-6)"></path>
                                <path d="M279.484,131.486 L57.647,131.486 L57.647,201.09 L279.484,201.09 L279.484,131.486 Z" id="Fill-96" stroke="none" fill="#FFC107" fill-rule="evenodd" mask="url(#mask-6)"></path>
                                <path d="M157.347,266.7964 L129.074,266.7964 C126.579,266.7964 124.557,268.8184 124.557,271.3134 L124.557,273.9844 C124.557,276.4794 126.579,278.5014 129.074,278.5014 L157.347,278.5014 C159.842,278.5014 161.864,276.4794 161.864,273.9844 L161.864,271.3134 C161.864,268.8184 159.842,266.7964 157.347,266.7964" id="Fill-97" stroke="none" fill="#DDF8E5" fill-rule="evenodd" mask="url(#mask-6)"></path>
                                <path d="M208.0568,266.7964 L179.7838,266.7964 C177.2888,266.7964 175.2668,268.8184 175.2668,271.3134 L175.2668,273.9844 C175.2668,276.4794 177.2888,278.5014 179.7838,278.5014 L208.0568,278.5014 C210.5518,278.5014 212.5738,276.4794 212.5738,273.9844 L212.5738,271.3134 C212.5738,268.8184 210.5518,266.7964 208.0568,266.7964" id="Fill-98" stroke="none" fill="#FBE9E7" fill-rule="evenodd" mask="url(#mask-6)"></path>
                                <path d="M167.92,183.616 L92.224,183.616 L92.224,163.408 L167.92,163.408 L167.92,183.616 Z" id="Fill-99" stroke="none" fill="#FFD54F" fill-rule="evenodd" mask="url(#mask-6)"></path>
                                <path d="M167.92,191.096 L92.224,191.096 L92.224,187.321 L167.92,187.321 L167.92,191.096 Z" id="Fill-100" stroke="none" fill="#FFD54F" fill-rule="evenodd" mask="url(#mask-6)"></path>
                                <path d="M244.906,150.443 L168.053,150.443 L168.053,146.668 L244.906,146.668 L244.906,150.443 Z" id="Fill-101" stroke="none" fill="#FFD54F" fill-rule="evenodd" mask="url(#mask-6)"></path>
                                <path d="M102.329,153.145 L92.225,153.145 L92.225,144.399 L102.329,144.399 L102.329,153.145 Z" id="Fill-102" stroke="none" fill="#FFD54F" fill-rule="evenodd" mask="url(#mask-6)"></path>
                                <path d="M244.906,230.724 L92.224,230.724 L92.224,223.539 L244.906,223.539 L244.906,230.724 Z" id="Fill-103" stroke="none" fill="#ECEFF1" fill-rule="evenodd" mask="url(#mask-6)"></path>
                                <path d="M229.559,238.542 L107.572,238.542 L107.572,236.257 L229.559,236.257 L229.559,238.542 Z" id="Fill-104" stroke="none" fill="#ECEFF1" fill-rule="evenodd" mask="url(#mask-6)"></path>
                                <path d="M229.559,243.618 L107.572,243.618 L107.572,241.333 L229.559,241.333 L229.559,243.618 Z" id="Fill-105" stroke="none" fill="#ECEFF1" fill-rule="evenodd" mask="url(#mask-6)"></path>
                                <path d="M229.559,248.694 L107.572,248.694 L107.572,246.409 L229.559,246.409 L229.559,248.694 Z" id="Fill-106" stroke="none" fill="#ECEFF1" fill-rule="evenodd" mask="url(#mask-6)"></path>
                                <path d="M207.198,253.77 L129.933,253.77 L129.933,251.485 L207.198,251.485 L207.198,253.77 Z" id="Fill-107" stroke="none" fill="#ECEFF1" fill-rule="evenodd" mask="url(#mask-6)"></path>
                                <path d="M279.484,296.29 L57.647,296.29 L57.647,303.579 L279.484,303.579 L279.484,296.29 Z" id="Fill-108" stroke="none" fill="#FBE9E7" fill-rule="evenodd" mask="url(#mask-6)"></path>
                            </g>
                        </g>
                    </g>
                </g>
            </g>
        </g>
    </g>
</svg>