<svg width="361" height="265" viewBox="0 0 361 265" xmlns="http://www.w3.org/2000/svg"><title>D1E3EA76-10E7-46A0-A730-05FA3C68BCD5</title><g fill="none" fill-rule="evenodd"><path fill="#D8DADC" fill-rule="nonzero" d="M360.23 152.37L180.71 256.69.03 152.37 179.54 48.05z"/><path fill="#C5C5C5" fill-rule="nonzero" d="M360.23 152.37l-.03 7.88-179.51 104.33.02-7.89z"/><path fill="#898989" fill-rule="nonzero" d="M180.71 256.69l-.02 7.89L0 160.26l.03-7.89z"/><path d="M237.14 105.66l-70.38 40.9c2.89 1.66 49.53 29.36 52.41 31l70.38-40.9c-2.88-1.66-49.53-29.36-52.41-31z" fill="#CBD2D7"/><path d="M140.41 84.31l147.24 85.57c-6 3.48-78.81 45.71-84.85 49.19L55.56 133.5c6-3.48 78.81-45.71 84.85-49.19z" fill="#CBD2D7"/><path fill="#D1CDCA" d="M245.6 122.75l-21.48 12.4.4.28.93.44 20.89-11.91.6-.49-1.34-.72z"/><path d="M225.45 135.87l-1.33-.72a3.1 3.1 0 0 1-2.87.11c1.72 1.23 2.6 1.55 4.2.61z" fill="#C8C3BE"/><path d="M221 134.09l-1.43-.86a3 3 0 0 0 1.23 2.84l1.51.88a3.11 3.11 0 0 1-1.31-2.86z" fill="#D1CDCA"/><path d="M226.13 84.7l.08-.14a39.88 39.88 0 0 1 7.14-10.17l.18-.18a36.12 36.12 0 0 1 7.15-5.58 32.75 32.75 0 0 1 6.75-3.18l.06-.13-1.17-.64h-.13a34.31 34.31 0 0 0-6.51 2.93 37.73 37.73 0 0 0-15.25 17c-.1.21-.2.43-.29.64a58.42 58.42 0 0 0-4.46 17.26 40.7 40.7 0 0 0-.17 4.81v25.86l1.43.85.22-27.35a51.94 51.94 0 0 1 4.94-22l.03.02z" fill="#DEDCD9"/><path d="M230.59 77a35.49 35.49 0 0 1 10.15-8.77 31.39 31.39 0 0 1 6.75-2.89v1.09a33.9 33.9 0 0 0-6.5 2.9 34.55 34.55 0 0 0-9.84 8.52c-4.22 5.31-7.12 12-8.66 19.94a53.35 53.35 0 0 0-1 11.21l.06 24.72c0 2.4 1.72 3.38 3.81 2.17l21.49-12.41v.77l-21.49 12.41c-2.46 1.42-4.47.28-4.48-2.55l-.15-25a55.37 55.37 0 0 1 1-11.49c1.55-8.15 4.41-15.16 8.76-20.64l.1.02z" fill="#5A463F"/><path d="M241.35 68.26c.31-.18.82-.29 1.12-.45v1.35l-.87.49c-5.85 3.38-13.23 10-17 22.83l-1.07.1a36.22 36.22 0 0 1 17.89-24.32h-.07z" fill="#E9E0E0"/><path d="M234.69 73.47a38.8 38.8 0 0 0-6 7.39 47.54 47.54 0 0 0-5.22 11.72l-2.31-1.34a46 46 0 0 1 6.41-13.51 38.39 38.39 0 0 1 4.82-5.6 36.36 36.36 0 0 1 7.71-5.62h.07l2.31 1.34a35.79 35.79 0 0 0-7.78 5.66l-.01-.04z" fill="#FBF9FA"/><path d="M277.25 137.22a3.4 3.4 0 0 1-1.77 2.49l-.17.45.16.33.08-.05a4.53 4.53 0 0 0 1.06-.87 3 3 0 0 0 .48-.78l.05-.16a2.4 2.4 0 0 0 .08-.69v-.64l.03-.08z" fill="#6E5952"/><path d="M274.11 135.47v.77a2.62 2.62 0 0 1 1.07 1c.117.219.178.462.18.71v-.77a2.1 2.1 0 0 0-1.25-1.75v.04z" fill="#DEDCD9"/><path d="M250.13 123.4a6.08 6.08 0 0 1 2.9.72l.28-.21-.28-.56a6.2 6.2 0 0 0-6 0v.77l.4-.2a6.36 6.36 0 0 1 2.69-.52h.01z" fill="#B0A8A2"/><path fill="#BDB8B3" d="M274.11 135.47v.77l-21.08-12.12v-.77l21.08 12.12z"/><path d="M275.44 134.69l-21.07-12.12a9.6 9.6 0 0 0-8.67 0l-12.94 7.59 1.3.73 13-7.54a6.59 6.59 0 0 1 6 0l21.08 12.12c1.66 1 1.67 2.51 0 3.47l-13 7.55 1.35.77 13-7.55c2.38-1.38 2.36-3.63 0-5l-.05-.02z" fill="#D1CDCA"/><path fill="#5A463F" d="M262.49 147.26v.77l12.98-7.54.01-.77-12.99 7.54z"/><path d="M250.13 123.4v-.82a6.12 6.12 0 0 0-3.1.77l-.15.48.15.29.4-.2a6.36 6.36 0 0 1 2.69-.52h.01z" fill="#6E5952"/><path fill="#5A463F" d="M234.06 130.89l-.01.77 12.99-7.54v-.77l-12.98 7.54z"/><path d="M246.72 81.38a10.75 10.75 0 0 1-1-.62c-.6-.45-1-.84-1-1.06a.89.89 0 0 1-.11.53l.07.11a7.1 7.1 0 0 0 1.91 1.27l.05-.23h.08z" fill="#E1D8D7"/><path d="M246.67 81.61a19.92 19.92 0 0 1-1.8-1.18l-.18-.2A6.35 6.35 0 0 1 242 82.9c.24-.14.91.09 1.12.17.453.188.894.405 1.32.65a8 8 0 0 0 1.38-1c.37-.3.668-.679.87-1.11h-.02z" fill="#E1D8D7"/><path fill="#EAE3E3" d="M271.75 95.93l-25.03-14.55-.04.23 25.03 14.55.04-.23z"/><path d="M271.71 96.16l-25-14.55a3.38 3.38 0 0 1-.91 1.09 7.63 7.63 0 0 1-1.34 1l25 14.55a8.84 8.84 0 0 0 1.39-1c.389-.28.69-.666.87-1.11l-.01.02z" fill="#EAE3E3"/><path d="M274.93 97a2.72 2.72 0 0 1-1.25-.18l-.7-.28a11.8 11.8 0 0 1-1.23-.62v.23c.27.16.54.32.82.47.12.06.69.38 1.16.61a6.83 6.83 0 0 0 1.1.43 1 1 0 0 0 .14-.66h-.04z" fill="#E1D8D7"/><path d="M273.84 97.29c-.25-.11-.49-.23-.74-.36-.47-.25-.93-.5-1.39-.77a2.82 2.82 0 0 1-.42.64l-.05.06-.12.13-.07.07-.21.21a8.84 8.84 0 0 1-1.39 1c.54.38 2.39 1.63 2.48 2.24a9.51 9.51 0 0 0 1.6-1.15 6 6 0 0 0 1-1.1 2.62 2.62 0 0 0 .31-.59 4.19 4.19 0 0 1-1-.38z" fill="#E1D8D7"/><path d="M242 82.88l-.85.45-.84.44c-4.27 2.28-8.55 4.51-12.75 6.92l-2.66 1.54c-3.51 2-6.84 4.1-9.44 5.93a2.87 2.87 0 0 0-1.14 1.1 2.67 2.67 0 0 0-.23.8 1.69 1.69 0 0 0 .42 1.18c.428.506.93.944 1.49 1.3l.22.14.21.13c-.95-.56-.18-2.42.57-3.15l.4-.34c4.48-3 8.27-5.31 12-7.46 4.71-2.72 9.3-5.13 15-8.15-.54-.35-2-1-2.4-.84v.01z" fill="#EAE3E3"/><path d="M215 98.49a2 2 0 0 0-.68.78 2.67 2.67 0 0 0-.23.8 1.69 1.69 0 0 0 .42 1.18c.428.506.93.944 1.49 1.3l.22.14.21.13c-.95-.56-.18-2.42.57-3.15l-2-1.17v-.01z" fill="#E1D8D7"/><path d="M253.43 29l-.28-.15c-.25-.13-.51-.25-.78-.37a5.82 5.82 0 0 0-1-.31 2.77 2.77 0 0 0-.7-.07 1.55 1.55 0 0 0-.72.2 5 5 0 0 1 2.42.83 1.39 1.39 0 0 1 .78-.19l.25.06h.03z" fill="#FEFDFE"/><path d="M252.4 29.15c-.36-.2-2-1.09-2.42-.83-1.14.64-1.47 3.58-1.76 4.76-.29 1.18-.51 2.13-.77 3.19-1.46 6.07-2.87 12.06-4 18.21 0 .23-.1.54-.14.77-.35 2-.68 4-1 5.94-.15 1.08-.3 2.32-.4 3.4-.1 1.08-.21 2.37-.26 3.56-.05 1-.05 2 0 3a13.69 13.69 0 0 0 1.35 5.76 10.87 10.87 0 0 0 1.08 1.8c.16.211.333.412.52.6.113.1.184.24.2.39 0 .33.76 1 1.92 1.68l-.07-.3c-.35-.84-1.38-1.8-2-3.23a15.66 15.66 0 0 1-1.13-6.14A61.47 61.47 0 0 1 244 65c.55-4.82 1.49-10 2.5-14.84.57-2.65 1.16-5.23 1.73-7.63.72-3.08 1.4-5.87 1.94-8.1.05-.19.09-.36.13-.54.24-1 .45-1.85.64-2.68a3.52 3.52 0 0 1 1.43-2.1l.03.04z" fill="#F7F3F3"/><path d="M252.4 29.15c-.36-.2-2-1.09-2.42-.83a2.94 2.94 0 0 0-1 1.69l2.02 1.11a3.52 3.52 0 0 1 1.4-2v.03z" fill="#FBF9FA"/><path d="M217 99.65c-.78.63-1.61 2.56-.58 3.17l25 14.54c-.81-.5 0-2.64.57-3.16L217 99.65z" fill="#EAE3E3"/><path d="M244.42 83.72c-5.74 3-10.33 5.43-15 8.15-3.72 2.15-7.51 4.49-12 7.46l-.39.32 25 14.55.4-.32c4.47-3 8.26-5.31 12-7.46 4.72-2.72 9.3-5.13 15-8.15l-25-14.55h-.01z" fill="#F3EEEE"/><path d="M246.37 115.16c2.93-1.91 5.59-3.58 8.15-5.1 3.48-2 8.15-4.63 14.4-8l3-1.59a1.1 1.1 0 0 0-.31-.58 8.55 8.55 0 0 0-1-.88l-1-.68-.19-.1c-5.74 3-10.32 5.43-15 8.15-3.72 2.15-7.51 4.49-12 7.46l-.41.33a3.3 3.3 0 0 0-1 2.33 1 1 0 0 0 .42.82l.4.22a7.2 7.2 0 0 0 1.67.64 3 3 0 0 0 .79.07h.13a2.16 2.16 0 0 0 .49-.16l.1-.05.07-.14-.34.13c-.31 0-.51-.15-.54-.51a1.71 1.71 0 0 1 .15-.71 9.48 9.48 0 0 1 2-1.68l.02.03z" fill="#EAE3E3"/><path d="M242 114.21a3.3 3.3 0 0 0-1 2.33 1 1 0 0 0 .42.82l.4.22a7.2 7.2 0 0 0 1.67.64 3 3 0 0 0 .79.07h.13a2.16 2.16 0 0 0 .49-.16l.1-.05.07-.14-.34.13c-.31 0-.51-.15-.54-.51a1.71 1.71 0 0 1 .15-.71 6 6 0 0 1 .83-.79l-3.17-1.85z" fill="#E1D8D7"/><path d="M278.51 43.59l-25-14.53a.86.86 0 0 0-.68-.08l-.39.16 25 14.55a1.13 1.13 0 0 1 1.08-.11l-.01.01z" fill="#FEFDFE"/><path d="M270.71 94.47a8.57 8.57 0 0 1-.63-1 14.36 14.36 0 0 1-1-2.69 12.25 12.25 0 0 1-.37-2c-.07-.76-.1-1.58-.1-2.43a55.56 55.56 0 0 1 .43-6.65c.05-.46.11-.93.17-1.4l-25-14.55c-.06.47-.12.94-.17 1.4a60.06 60.06 0 0 0-.43 6.65c0 .85 0 1.67.1 2.43.075.675.202 1.344.38 2a13.7 13.7 0 0 0 1 2.69c.36.71 1.67 1.94 1.67 2.51l25 14.55c0-.51-.75-1-1-1.46l-.05-.05z" fill="#F3EEEE"/><path d="M246.55 50.09c-.53 2.48-1 5-1.47 7.5-.37 2.07-.69 4.11-1 6.07l25 14.55c.25-2 .57-4 .94-6.07.44-2.49.95-5 1.48-7.5l-25-14.55h.05z" fill="#F7F3F3"/><path d="M251 31.08v.16c-.18.86-.44 1.95-.75 3.23-.54 2.23-1.22 5-1.94 8.1-.57 2.37-1.15 4.92-1.71 7.52l25 14.55c.56-2.61 1.14-5.15 1.7-7.52.72-3.08 1.41-5.87 1.95-8.1.3-1.28.56-2.38.75-3.23v-.16l-25-14.55z" fill="#FBF9FA"/><path d="M252.4 29.15a3.42 3.42 0 0 0-1.4 1.93l25 14.55a3.36 3.36 0 0 1 1.4-1.93l-25-14.55zm28.46 16.94a1.9 1.9 0 0 0-.48-1l-.05-.06a6.38 6.38 0 0 0-1.52-1.26l-.48-.25h-.13a1.37 1.37 0 0 0-.77.2l.63.39c.24.16.5.34.72.52a4.68 4.68 0 0 1 1.07 1.06l.09.26h.09c.62-.06.84.24.69.93-.15.69-.39 1.69-.63 2.72-.79 3.29-1.6 6.58-2.37 9.87-.71 3.08-1.45 6.39-2.11 9.7l-.05.29c-.06.3-.12.6-.17.89-.4 2-.733 3.967-1 5.9-.12.84-.25 1.68-.35 2.52-.16 1.19-.29 2.35-.38 3.46-.5 5.72-.93 6.91 1 10.49.85 1.56 2 2 1.78 4.19-.36 3.27-3.2 3.23-4.48 5.58l-.06.15a12.14 12.14 0 0 0 3-2.41l.42-.56a7.68 7.68 0 0 0 .88-1.49 5.93 5.93 0 0 0 .49-1.62 4.57 4.57 0 0 0 0-1 3.51 3.51 0 0 0-.68-1.75c-.58-.89-1-1.63-1.38-2.28-1.11-2.07-1.21-3.35-1.09-6.6 0-.9.08-1.79.16-2.7.08-.91.17-1.74.28-2.64.13-1.11.28-2.21.45-3.32.22-1.38.45-2.76.7-4.14.91-5 2.11-10.31 3.32-15.41.56-2.35 1.13-4.69 1.69-7 .19-.79.38-1.58.56-2.37l.09-.39a2.3 2.3 0 0 0 .07-.74v-.13z" fill="#FEFDFE"/><path d="M279.77 46.08c-1.6 2.1-6 23.73-6.68 27.31-.43 2.51-.66 5-.93 7.4-.27 2.4-.42 4.56-.42 6.53 0 .8 0 1.63.1 2.37.064.65.184 1.292.36 1.92a13.56 13.56 0 0 0 1 2.59c.21.34.4.72.61 1 .3.44.84.83 1 1.24.08.18.122.374.12.57a1.48 1.48 0 0 1-.14.66 6.7 6.7 0 0 1-2.86 2.84c-5.74 3-10.32 5.43-15 8.14-3.7 2.13-7.5 4.49-11.94 7.42a1.83 1.83 0 0 0-.77 1.48c0 .48.39.66.9.37l-.06.14c4.47-3 8.29-5.31 12.06-7.49 2.68-1.51 5.95-3.3 9.93-5.44l.26-.14 2.46-1.29 2.06-1.08.09-.16c1.81-1.2 3.33-2.35 4.22-4.43a5.81 5.81 0 0 0 .34-1 4.73 4.73 0 0 0 .11-1c0-1.3-.47-1.5-1.2-2.39a4.14 4.14 0 0 1-.6-.94 12.67 12.67 0 0 1-.84-2 8.21 8.21 0 0 1-.46-2.16 21 21 0 0 1-.09-2.19 66.9 66.9 0 0 1 .91-9.95c.83-5.53 2.14-11.61 3.39-17 .63-2.68 1.24-5.18 1.76-7.35s1-4 1.27-5.37c.11-.51-.09-.77-.37-.83a.58.58 0 0 0-.61.21l.02.02z" fill="#E9E0E0"/><path d="M273.27 73.39c.43-2.44.93-4.92 1.45-7.35 1.12-4.58 2.43-9.12 3.35-13.75.17-.84 1.1-5.9 1.87-6.36 0-.23-.35-.6-.51-.76A10.3 10.3 0 0 0 277.9 44l-.47-.28a3.32 3.32 0 0 0-1.43 2.07c-.19.85-.45 2-.75 3.23-.54 2.23-1.23 5-1.95 8.1-.39 1.64-.79 3.37-1.18 5.14-.73 3.28-1.41 6.57-2 9.88a84 84 0 0 0-1.54 14.12c0 .85 0 1.67.1 2.43.068.676.191 1.345.37 2a14.36 14.36 0 0 0 1 2.69c.187.347.397.682.63 1 .25.36.86.88 1 1.16l.06.3.74.4c.31.15.66.31 1 .43.34.12 1.16.42 1.45.25a1.37 1.37 0 0 0-.1-.58 14 14 0 0 0-1-1.23c-.21-.28-.4-.66-.61-1a13.56 13.56 0 0 1-1-2.59 11.21 11.21 0 0 1-.36-1.92c-.07-.74-.07-1.57-.1-2.37 0-2 .19-4.23.42-6.53.23-2.3.68-4.89 1.11-7.4l-.02.09z" fill="#F7F3F3"/><path d="M279.2 47.43a3.19 3.19 0 0 1 .74-1.5c0-.23-.35-.6-.51-.76A10.3 10.3 0 0 0 277.9 44l-.47-.28A3.27 3.27 0 0 0 276 45.6l3.16 1.83h.04z" fill="#FBF9FA"/><path d="M234 149.93a13.52 13.52 0 0 1 1.12 4.35c-.05 1.18-.38 2.33-.36 3.82 0 1.28.08 2.37.22 3.81s0 2.19-.65 2.78a22.52 22.52 0 0 1-5.69 2.95 5.92 5.92 0 0 1-2.64.36 11.53 11.53 0 0 1-3.5-.63c-.32-.12-.65-1.37-.68-2.46 0-2.26.16-2.07 1.1-5.67.32-1.23.58-2.4 1-3.83a20.39 20.39 0 0 0 1.3-5.12l6.65-.26 2.08-.09.05-.01z" fill="#190F11"/><path d="M234 149.93a13.52 13.52 0 0 1 1.12 4.35c-.05 1.18-.38 2.33-.36 3.82 0 1.28.08 2.37.22 3.81s0 2.19-.65 2.78a22.52 22.52 0 0 1-5.69 2.95 5.92 5.92 0 0 1-2.64.36 11.53 11.53 0 0 1-3.5-.63c-.29-.11-.59-1.15-.66-2.15a7.5 7.5 0 0 0 6 0c4.11-2 3.58-3.68 3.19-8.43-2.68-.47-3.73-1-5.09-2.41 2.28.67 4.74.79 5.95-.61l.38-3.77 1.73-.08v.01z" fill="#0D0506"/><path d="M224.92 154.75c1.92 1.52 1.25 2.18 4.05 2.55a15.81 15.81 0 0 1-2.18 5.47c-.12 1-.2 2.44-2.26 2.45-3.85 0-1.18-3.15-1.17-3.26a32.1 32.1 0 0 1 1.56-7.21z" fill="#271C24"/><path d="M210.07 139c-.67 2.37-.84 3.59-1.82 5-2 2.75-4.86 4.71-9.07 7.7-2 1.42-2.43 2.77-.4 4 1.6 1 5.51.2 7.95-.37 4.58-1.08 6.43-3.84 8-4.55l1.19.27c1 0 4.55-1.93 5.29-2.93A19.1 19.1 0 0 0 222 145c.15-3.88-.46-3.49-1.5-6.52-3.52.26-6.94.45-10.47.57l.04-.05z" fill="#190F11"/><path d="M197.46 153.92c0 .61.39 1.2 1.32 1.77 1.6 1 5.51.2 7.95-.37 4.58-1.08 6.43-3.84 8-4.55l1.19.27c1 0 4.55-1.9 5.53-2.8A22.83 22.83 0 0 0 222 145c.15-3.88-.46-3.49-1.5-6.52-1.56.11-3.1.22-4.63.3-.28 2.56.09 7-2 8.6-2.35 1.83-4.18 2.32-5.75 3.27-5 3-8.3 5.51-10.69 3.3l.03-.03z" fill="#0D0506"/><path d="M209 143.38c.5.73 1.48 1.15 3.11 1.55-2.62 3-3 2.68-6.51 4.66-1.77 2-2 2.41-3.15 3.06-1.35.78-3.26 1.58-4.06 1-.35-.25.12-.94 1.61-2 1.68-1.23 3.4-2.46 5-3.76a18.21 18.21 0 0 0 4-4.5v-.01z" fill="#271C24"/><path d="M217.9 110.11c9.16-8.43 23-8.55 29.88-12.79 5-3.09 7.68-3.46 4.55-10L235.62 81c0 1.58-1 3.68-1.47 3.87a110.71 110.71 0 0 0-23.47 12.34c-1.24.69-3.17 2.49-3.19 4 0 2.11 5.35 8 10.41 8.84v.06z" fill="#0A2034"/><path d="M217.9 110.11c9.16-8.43 23-8.55 29.88-12.79 5-3.09 7.68-3.46 4.55-10l-6.2-2.32c-.87 1.78-3.32 3.7-4.71 4.89a23.81 23.81 0 0 1-3.87 2.69c-3.39 1.92-12.25 6.4-18.35 9-2.45 1-2.95 2.08-3.1 3.31a16.44 16.44 0 0 0 .22 4.83 9.28 9.28 0 0 0 1.58.43v-.04z" fill="#141925"/><path d="M207.54 106.61c.47 11.64 1 23.18 1.72 34.84 1.65 2.72 9.65 2.88 12.38-.94.41-10.56 1.07-18.9.77-24.68-.25-4.81-1.49-7.65-2-11.86-1.82-4.77-9.19-6.62-12-4.62-1.73 1.24-.95 5.22-.87 7.26z" fill="#0A2034"/><path d="M216.87 143.22a7.53 7.53 0 0 0 4.77-2.71c.41-10.56 1.07-18.9.77-24.68-.25-4.81-1.49-7.65-2-11.86a6.83 6.83 0 0 0-1.48-2.3c-2.19 1-2.66 2-2.8 3.18-.5 4.17 1.1 7.57 1.48 11.66.66 7.3-.33 18-.71 26.71h-.03z" fill="#141925"/><path d="M232.65 118.24c5.15-4.74 12.66-7.59 18.85-9.55 4.83-1.53 8.61-2.47 11.3-3.92 7.27-3.89 5.77-9.15 2.6-13.07-1.72-2.11-3.48-3.26-5.61-5.16l-14.27-.41c-.09 1.87-6.32 5-6.23 7.07.1.513.38.974.79 1.3 1.08.76-.79 1.85-1.62 2.37-3.63 2.28-9.41 6.13-13 8.49-1.21.86-3.19 2.57-3.23 3.92-.06 2.12 5.39 8.08 10.45 9l-.03-.04z" fill="#0A2034"/><path d="M232.65 118.24c5.15-4.74 12.66-7.59 18.85-9.55 4.83-1.53 8.61-2.47 11.3-3.92 7.27-3.89 5.77-9.15 2.6-13.07-1.72-2.11-3.48-3.26-5.61-5.16l-1.6.54 2.42 5.92c-6.58 4.45-17.34 10.67-25.46 16-2.38 1.57-3.8 2.33-4.14 4.06a15.43 15.43 0 0 0 .31 4.78c.434.15.879.266 1.33.35v.05z" fill="#141925"/><path d="M222.08 110.08c.5 13.36 1.11 28.11 1.91 41.46 1.66 2.72 9.65 2.89 12.39-.94.4-10.56 1.06-20 .77-25.74-.25-4.81-2.11-8.06-2-12.34-2.26-5.94-13.14-7.35-13-2.44h-.07z" fill="#0A2034"/><path d="M231.6 153.32a7.59 7.59 0 0 0 4.78-2.72c.4-10.56 1.06-20 .77-25.74-.25-4.81-2.11-8.06-2-12.34a6.74 6.74 0 0 0-1.58-2.4c-1.41.95-2.27 1.7-2.52 3-.42 2.14.64 5.09 1 11.48.55 8.88-.61 19.7-.45 28.73v-.01z" fill="#141925"/><path d="M244.89 87.86L255.62 94c-9.77 5.83-16.06 10.73-25.88 15.65-2.29 1.15-7.63 0-4.08-2.84 4.78-3.83 10.38-6.92 15.72-11 1.11-.84-1.65-1.31-1.12-3 .39-1.29 3.81-4.57 4.63-4.89v-.06z" fill="#0B253D"/><path d="M259.71 32c12.69 12.53-15.84 12.89-19.8 34 .93-12.41-9.14-31.35 6.11-34.55l13.69.53V32z" fill="#E9A56D"/><path d="M259.74 31.57c.33 3.8-11.06 8.23-13.5 4.88a6.08 6.08 0 0 0 .35-2.3 9.69 9.69 0 0 0-.79-2.67c-.43-1.16-.44-3.62-1.18-6.34l10.72-4.68 2.3-1.22c-1.1 5.36.11 7.85 2.1 12.33z" fill="#E9A56D"/><path d="M259.74 31.57a1.63 1.63 0 0 1 0 .58c-5.09-3.2-8.25-.52-14.22-2.11a38.08 38.08 0 0 0-.86-4.9l10.72-4.68 2.3-1.22c-1.1 5.36.11 7.85 2.1 12.33h-.04z" fill="#DE955C"/><path d="M237 80.73c.034.239.126.466.27.66 3 4.23 22.08 10.61 26.07 10.28-3-26.25 20.38-50.4-4-60.29-1.34 3.86-6.5 6.62-9.53 6.62-3.87 0-6.33-2.19-5.11-5.47.11-.3-.88 2.08-1 1.77-3 4-4.47 9-5.11 15.57-1 10.3 1.17 19.54-1.6 30.84l.01.02z" fill="#F8FCFE"/><path d="M249.21 88c5.28 1.88 12.26 3.87 14.13 3.72-3.16-27.51 26.13-50.44-4.73-59.51-2.08 3.83-4.5 7.82-6.42 11.67-5.47 11-8 32.7-3 44.12h.02z" fill="#F1F8FC"/><path d="M267.81 35.28c-1.65-.92-5-3-8.68-5 3.07 3.68-4.35 12.52-7.79 23.55a59.7 59.7 0 0 0-2.11 14.66c-.18 5.25 1.49 30.29 2.68 34.54 4.21 3.22 6.83 2.65 10.56 1.07a36.8 36.8 0 0 0 8.85-5.6c-1.46-12-5.79-12.49-6.12-20-.31-6.87 9.39-25.19 9.3-34.67 0-4.21-3.59-6.83-6.69-8.55z" fill="#B4BCC6"/><path d="M267.81 35.28l-8.44-4.68c1.26 2 4.62 4.19 8.24 7.24a16.62 16.62 0 0 0-4.68 8.27c-1.9 7.54-4.82 17.47-5.32 24.36-1.34 18.42 6.95 19.77 7 32.48a50.74 50.74 0 0 0 6.67-4.48c-1.22-11.56-5.5-11.51-6.08-20-.47-6.86 9.39-25.19 9.3-34.67 0-4.21-3.59-6.83-6.69-8.55v.03z" fill="#ACB3BD"/><path d="M261 34.05l4.38 3.73c-4.27 7-9.78 20.36-9.94 33.69-.08 6.43 4 26 7.5 31.85-2.83 1.86-9.81 1.84-10.32-1.15-2.22-13-2.37-36.71.37-47.09 2.36-8.9 6.4-15.34 8-21l.01-.03z" fill="#BDC6CD"/><path d="M261.62 78.62a32.24 32.24 0 0 0-8.88.5l1.65 9.88c2.33 1 5.63.72 8.54-.49l-1.31-9.93v.04z" fill="#B4BCC6"/><path d="M261.62 78.62a32.24 32.24 0 0 0-8.88.5c.52 2.95.27 2.93 3.44 3.12 5.66.33 3.92 1 5.87 6.64.08.25.59-.21.88-.33l-1.31-9.93z" fill="#ACB3BD"/><path d="M261.32 77.35c-4.18-.12-6-.45-9.14-.46l.8 4c1.06.55 6.61 1.21 9.07 0l-.73-3.54z" fill="#B4BCC6"/><path d="M261.32 77.35c-4.18-.12-6-.45-9.14-.46 3 1.12 8.11.82 9 4.31a5.88 5.88 0 0 0 .87-.31l-.73-3.54z" fill="#A6ACB4"/><path d="M253.5 82.57l5.23.85 2.11 5.2a18 18 0 0 1-5.8.32l-1.54-6.37zm-.87-5.15c2.44.74 5.87 1.77 7.3 3.59a18.41 18.41 0 0 1-6.4-.42 14.29 14.29 0 0 1-.9-3.17z" fill="#BDC6CD"/><path d="M237.34 71.74c-1.23-1.34-1.57-1.68-2.71-2.06l-.85 11.08a3.78 3.78 0 0 0 3 1.42l.54-10.44h.02z" fill="#B4BCC6"/><path d="M237.34 71.74c-1.23-1.34-1.57-1.68-2.71-2.06-.12 3.15-.19 3 .74 4.15 1.66 2 1 2.11 1.08 8.43l.35-.08.54-10.44z" fill="#ACB3BD"/><path d="M234.54 73.4l1.46 2.37-.13 6.09a3.15 3.15 0 0 1-1.82-1.34l.47-7.12h.02z" fill="#BDC6CD"/><path d="M237.79 69.11c-1.38-.61-1.94-1.16-3-1.52l-.48 4.25c.25.7 2 2 3 1.08l.43-3.81h.05z" fill="#B4BCC6"/><path d="M237.79 69.11c-1.38-.61-1.94-1.16-3-1.52.8 1.52 2.57 1.77 2.2 5.55l.35-.22.43-3.81h.02z" fill="#ACB3BD"/><path d="M234.87 68.19a9.53 9.53 0 0 1 1.76 4.62c-1-.07-1.26-.31-2.06-1.17 0-1.14.16-2.2.3-3.45z" fill="#BDC6CD"/><path d="M261.73 31.88c1.21 2.94.61 8.16-.85 13.25l-3-1.1 1.43 3.23c-6 7.78-9.29 19.36-9.75 31.26-3.65-29.23 8.7-39.16 9.19-49.13a11.44 11.44 0 0 1 2.94 2.49h.04z" fill="#C8D2DA"/><path d="M247.34 29.06c1.42-.57 4.67-1.16 6-1.76 2.82-1.29 3-4.18 4.48-7.63 2.63-1.17 3.66-2.31 4.17-3.74 1.2-3.39 0-7.55-2.27-10.15A9.39 9.39 0 0 0 252 2.5c-6.12.08-9.43 4-10.77 9a3.46 3.46 0 0 0-.1 1.29c.11 1.08.46 1.62.54 2.36.16 1.32-.36 1.47-.64 2.21-.34.93 0 2.86-.05 4.65a15.8 15.8 0 0 0 .13 2.13c.18 1.8.72 3.85 1.3 4.23a13 13 0 0 0 1.86.79c.63.27 1.26.37 3.07-.12" fill="#F1B582"/><path d="M244.71 25.47c-9 2.35-10.2 11.71-9.86 25.39.12 4.83.88 9.07.94 15.06.05 4.49-1 12.73-1.58 18.93 1.09-1.15 2-2.38 3-3.63 1.62-13.48 2.33-29.71 5.14-40.58a29.44 29.44 0 0 1 3.8-8.33c-.1-.27-.21-.54-.32-.83a8.28 8.28 0 0 1-.32-1.44v-4.43l-.8-.14z" fill="#B4BCC6"/><path d="M245.36 31.13c-5.18 4.12-7.32 15.52-7.23 25.76.14 14.81-.35 10.81-.81 24.55-.72.82-1.83 1.8-2.85 2.86 1.6-12.92 2.19-16.67 1.29-28.86-.77-10.39-.87-21.64 5.17-27.58.61 1.18 3.51 2.31 4.43 3.27z" fill="#BDC6CD"/><path d="M247.34 29.06c1.42-.57 4.67-1.16 6-1.76 2.82-1.29 3-4.18 4.48-7.63 2.63-1.17 3.66-2.31 4.17-3.74 1.2-3.39 0-7.55-2.27-10.15A9.39 9.39 0 0 0 252 2.5c-5.31.07-8.51 3.05-10.14 7.11.13.34 3 2 5.77 2.74 1.79.46 2.92-.26 4.73-.69.13 1.51-1.48 4.85-1.59 5.87 0 .25.61 1.44-.13 2.36-.2.25-.71.52-.67 1 .43 4.88-3 7.22-4.62 8.52a7.74 7.74 0 0 0 2-.34l-.01-.01z" fill="#E9A56D"/><path d="M245.3 28.47a10.13 10.13 0 0 0-5.39 4.75l1.87 1.55-2.36.77a238.37 238.37 0 0 0-.63 29.83c1.06-9.8 1.68-18.38 4-26.33a20.37 20.37 0 0 1 3.4-6.43 20.54 20.54 0 0 1-.93-4.14h.04z" fill="#C8D2DA"/><path d="M249.07 11.15c1.52-.56 3.76-3.5 6.24-4.55 2.48-1.05 5.3-2.22 7.09-.47 1.45 2.34 1.5 6.25.89 8.36-.88 3-3.22 5.46-6.25 8-1.14.94-.52-3.4-.73-4.36-.33.67-.7 1.36-1.09 2.07l-.77-.45c.13-.87 1.27-9.71.87-10.39-.93-.45-2.94 1.07-6.25 1.81v-.02z" fill="#35180D"/><path d="M257.64 16.48c2.42-.55 2.15 2.14 1.62 3.74-.37 1.09-1.28.91-1.71 1.76a2.12 2.12 0 0 1-2.08 1.33c-1.41-.19-.31-2.2-.06-3 0-1.39.7-3.46 2.23-3.81v-.02z" fill="#E9A56D"/><path d="M243.82 26.35c.33-.75.18-.83-.22-1.07-.4-.24-.57-.16-.88.38-.44-.23-.72-.3-.85-.55a1.33 1.33 0 0 1 0-.84c.17-.75.72-1.47 1.43-1.15a6.34 6.34 0 0 1 1.93 1.15 3.09 3.09 0 0 1 .19 2.47c-.12.19 0 .3-.38.22a4.05 4.05 0 0 1-1.21-.61h-.01zm12-16.78c.66 3.95-1.92 9.24-3.26 13a4.93 4.93 0 0 1-2.33 2.3 9.86 9.86 0 0 1-2.22 1.07c-.67-.15-.39-2-3-3.45a6.75 6.75 0 0 0-2.53-.93c-.88.11-1.16.55-1.57.1-.1 1.43-.13 5.12.65 6.33a6.28 6.28 0 0 0 2.59 1.75 5.44 5.44 0 0 0 3.4-.1A23 23 0 0 0 255 26a1.79 1.79 0 0 0 .91-2.42 14.44 14.44 0 0 1 .08-7.41 10.11 10.11 0 0 1 2.86-4.72c-1.64-1.92-3.58-5.63-2.95-1.92l-.08.04z" fill="#35180D"/><path d="M243.82 26.35c.33-.75.18-.83-.22-1.07-.4-.24-.57-.16-.88.38-.44-.23-.72-.3-.85-.55a1.33 1.33 0 0 1 0-.84c.17-.75.72-1.47 1.43-1.15a6.34 6.34 0 0 1 1.93 1.15 3.09 3.09 0 0 1 .19 2.47c-.12.19 0 .3-.38.22a4.05 4.05 0 0 1-1.21-.61h-.01zm5.23-.84a3 3 0 0 1-1 .4c-.67-.15-.39-2-3-3.45a6.75 6.75 0 0 0-2.53-.93c-.88.11-1.16.55-1.57.1-.1 1.43-.13 5.12.65 6.33a6.28 6.28 0 0 0 2.59 1.75c.182.093.378.153.58.18.37-.35.93-.79 1.09-.91a11.52 11.52 0 0 0 3.17-3.47h.02zm13.4-19.15a7.49 7.49 0 0 1 1.16 4.74 3.78 3.78 0 0 0-1.21-3 5.19 5.19 0 0 1 .3 4 4.12 4.12 0 0 0-1.33-3.48 7.86 7.86 0 0 1 .17 5.79 6.34 6.34 0 0 0-1.63-5.32c.72 1.55.24 3.2 0 4.62-.19-2-.16-3-1.45-4.13a7.28 7.28 0 0 1-.75 4.66 13 13 0 0 0-.71-4.35 3.53 3.53 0 0 1-1.54 2.56 10 10 0 0 0 .11-3.21c-.07-.34-.7-.37-1.19-.49 3.32-.65 7.12-2.32 8.06-2.39h.01z" fill="#51250E"/><path d="M262.54 6.34c-3.46-2.57-7.64 3.11-12.36 4.58-2 .63-2.83.36-5.5-.75-1.67-.7-3.15-1.58-3.31-2.38-.89-4.52.86-6 3.71-6.7 1.16-.29 2.7-.19 4-.53 5.23-1.4 11.82-.41 13.46 5.78z" fill="#35180D"/><path d="M261.78 4.45a3.78 3.78 0 0 1 .75 2c-3.58 2-5 1.66-8.31 2.85-3 1.08-6.15 2.74-8.84.71 1.79-3.67 3.85-4.9 8.29-4.64 1.66.1 2.38.92 5.81.39a3.38 3.38 0 0 0-1.26-.31c1.83-.4 3.06 0 3.56-1z" fill="#27120C"/><path d="M243.4 1.61c3.67-1.85 9.6-1.29 13.24 5.11-3.73-1-5.21.1-6.88 2.45a4.34 4.34 0 0 1-2.66 1.56c-1.26.1-2.46-.48-4-1.27a4.36 4.36 0 0 1-2.16-1.75c-.95-1.87-.34-4.65 2.51-6.1h-.05z" fill="#51250E"/><path d="M246.88 2a5.74 5.74 0 0 0-4.69 2.25 5.33 5.33 0 0 1 3.43-1.23A5.16 5.16 0 0 0 243 5c1.89-.91 3-1.5 5.25-1.46a5.94 5.94 0 0 0-3.75 2c2.17-.92 4.31-2 6.91-1.2-2-.28-4.91 1.09-6.26 2.75a11.41 11.41 0 0 1 4-1.11c-1 .17-2.07 1.89-2.36 2.23 1.68-.82 3.49-2.78 6.2-2.44-3.24.51-5.24 5.72-7.56 4.68-1.26-.56-3.93-1.8-4.42-2.61a3.88 3.88 0 0 1 1.49-5.39 7 7 0 0 1 4.4-.47l-.02.02z" fill="#35180D"/><path fill="#EDF5F7" fill-rule="nonzero" d="M241.26 13.56h1v3.3h-1z"/><path d="M248.91 21.19h-.12a18.44 18.44 0 0 1-3.73-1.19.6.6 0 0 1-.36-.55v-2.53a.59.59 0 0 1 .6-.59.59.59 0 0 1 .23 0 20.2 20.2 0 0 0 3.5 1 .61.61 0 0 1 .49.58v2.69a.6.6 0 0 1-.61.59m-6-2.59a.62.62 0 0 1-.38-.13 3.29 3.29 0 0 1-1.22-1.61 2.16 2.16 0 0 0 .37-1.69 14.13 14.13 0 0 0-.41-1.61V13c.12.75 1 1.53 2 2.19a.61.61 0 0 1 .26.49V18a.6.6 0 0 1-.61.59" fill="#F1DAC3" fill-rule="nonzero"/><path d="M242.08 14a2.08 2.08 0 0 1-.63-1.05v-.13h-.32v3.85l.06.42c.088.24.217.463.38.66.25.31.53.59.84.84l.48.18.33-.08.26-.19a.75.75 0 0 0 .18-.48v-2.37l-.09-.34-.24-.27a7.88 7.88 0 0 1-1.26-1l.01-.04zm-.66-.32c.125.194.269.375.43.54a9 9 0 0 0 1.31 1.08l.15.16.05.2V18l-.11.28-.15.12h-.2l-.28-.1a4.91 4.91 0 0 1-.79-.79 1.68 1.68 0 0 1-.38-.77v-3.07l-.03.01zm5.81 3.12c-.59-.17-1.13-.36-1.64-.56l-.29-.06-.42.13-.28.33-.06.29v2.55l.13.41.33.28a14.22 14.22 0 0 0 1.75.65c.63.2 1.3.37 2 .52h.16a.8.8 0 0 0 .48-.17l.27-.43V18a.72.72 0 0 0-.18-.47.74.74 0 0 0-.44-.26c-.64-.13-1.25-.28-1.83-.44l.02-.03zm-1.76-.28a17.17 17.17 0 0 0 1.67.57 20.27 20.27 0 0 0 1.86.45l.26.15.11.28v2.72l-.15.25-.29.1h-.09c-.7-.15-1.36-.32-2-.51a15.51 15.51 0 0 1-1.72-.64l-.2-.17-.07-.24v-2.73l.16-.2.25-.07h.17l.04.04z" fill="#2C1C1B"/><path d="M244.69 17.18a2.65 2.65 0 0 1-.63-.16l-.47-.32-.21.22c.16.161.35.29.56.38.23.095.472.156.72.18v-.3h.03z" fill="#2C1C1B"/><path d="M223.23 109.75a6.17 6.17 0 0 0 4.36 1.94c1.59 13 1 28.12 1.28 41.29a10.13 10.13 0 0 1-4.14-1.36c-1.08-13.77-1.25-28.12-1.5-41.87zM236 84.11a37.86 37.86 0 0 0 5.7 3.33 17.14 17.14 0 0 1-4.63 3.56c-7.16 3.9-14.52 8.07-21.66 10.45a5.31 5.31 0 0 1-4.57-.75c-.87-.64-1.55-1.6-.14-2.66a84.14 84.14 0 0 1 12.72-7.92c2.68-1.33 7.07-2.62 9.86-3.82a6.28 6.28 0 0 0 2.72-2.19zm-27.85 17.82a7.72 7.72 0 0 0 5.19 2.14c0 3.41 1.08 7.33 1.6 12 .85 7.71.3 17.88-.1 26.49a5.78 5.78 0 0 1-5-1.29c-.68-13.26-1.12-26.07-1.7-39.34h.01z" fill="#0B253D"/><path fill="#D1CDCA" d="M273.83 139.18l-21.48 12.4.39.28.94.43 20.89-11.9.59-.5-1.33-.71z"/><path d="M253.68 152.29l-1.33-.71a3.1 3.1 0 0 1-2.87.11c1.72 1.23 2.6 1.55 4.2.6z" fill="#C8C3BE"/><path d="M249.2 150.52l-1.43-.86a3 3 0 0 0 1.23 2.84l1.5.88a3.13 3.13 0 0 1-1.3-2.86z" fill="#D1CDCA"/><path d="M254.36 101.13l.08-.14a39.6 39.6 0 0 1 7.13-10.17l.19-.18a36.12 36.12 0 0 1 7.15-5.58 32.51 32.51 0 0 1 6.75-3.18l.06-.13-1.17-.65-.13.05a34.91 34.91 0 0 0-6.51 2.92 37.81 37.81 0 0 0-15.25 17l-.3.64a58.63 58.63 0 0 0-4.45 17.29 38.6 38.6 0 0 0-.17 4.81v25.85l1.43.86.22-27.36a51.63 51.63 0 0 1 4.94-22l.03-.03z" fill="#DEDCD9"/><path d="M258.81 93.41A35.49 35.49 0 0 1 269 84.64a31 31 0 0 1 6.76-2.89v1.09a34.4 34.4 0 0 0-16.34 11.42c-4.21 5.3-7.11 12-8.65 19.94a54 54 0 0 0-1 11.2l.07 24.73c0 2.4 1.71 3.37 3.81 2.16l21.48-12.4v.77l-21.48 12.41c-2.46 1.42-4.48.28-4.48-2.55-.047-8.32-.097-16.653-.15-25a56 56 0 0 1 1-11.49c1.55-8.15 4.42-15.16 8.76-20.64l.03.02z" fill="#5A463F"/><path d="M269.57 84.69c.31-.19.83-.29 1.13-.45v1.35l-.88.49c-5.84 3.38-13.22 10-17 22.82l-1.08.11a36.25 36.25 0 0 1 17.89-24.32h-.06z" fill="#E9E0E0"/><path d="M262.92 89.9a38.43 38.43 0 0 0-6 7.38 47.8 47.8 0 0 0-5.24 11.72l-2.31-1.34a46 46 0 0 1 6.42-13.51 38.39 38.39 0 0 1 4.82-5.6 35.9 35.9 0 0 1 7.71-5.63h.07l2.31 1.35a35.79 35.79 0 0 0-7.78 5.66v-.03z" fill="#FBF9FA"/><path d="M274 41.81c1.06 6.37-.89 18.62-2.86 26.47-1 4-2.06 7-5.46 7.37-3.22.3-5.31-3.32-5.33-6.63 0-3.93.35-8.68.8-16.86.48-8.72 11.42-18.87 12.85-10.35z" fill="#B4BCC6"/><path d="M274 41.81c1.06 6.37-.89 18.62-2.86 26.47-1 4-2.06 7-5.46 7.37-2.18.2-3.83-1.38-4.68-3.44l1.64-.37c2.93-.67 2.65-.06 3.31-2.92 1.85-7.9 4.54-25.6 3.48-29.38l-.15-.43c2.22-1.09 4.17-.57 4.72 2.7z" fill="#ACB3BD"/><path d="M157.77 153.87l-70.38 40.9c2.89 1.66 49.53 29.36 52.42 31l70.37-40.9c-2.88-1.66-49.52-29.35-52.41-31z" fill="#CBD2D7"/><path d="M139 170.84l-1.49-.86a7.89 7.89 0 0 1-.64 3 9.13 9.13 0 0 1-3.57 4.34l1.49.87a7.9 7.9 0 0 0 2.28-2 10.44 10.44 0 0 0 1.39-2.39 7.24 7.24 0 0 0 .54-2.88v-.08z" fill="#B0A8A2"/><path fill="#D1CDCA" d="M133.34 177.27l-23.87 13.82 1.46.85 23.9-13.81-1.49-.86z"/><path fill="#B0A8A2" d="M138.66 139.5l-1.49-.87.39 31.35 1.48.86-.38-31.34z"/><path d="M138.9 137.66a18.26 18.26 0 0 0-.25-2.16 15.37 15.37 0 0 0-3.11-7.2 11.21 11.21 0 0 0-3.17-2.77l-1.48-.86c3.27 1.9 5.34 5.32 6.05 10a17 17 0 0 1 .23 2.11v1.84l1.49.86c0-.07.25-1.38.24-1.84v.02z" fill="#9A908A"/><path d="M132.91 124.63c-3.59-2.09-5.77-2.88-10-2.58a31.37 31.37 0 0 0-13 4.38c-.74.43-1.47.88-2.21 1.37l1.48.86c.74-.48 1.48-.94 2.22-1.37a39.33 39.33 0 0 1 4.46-2.21 28 28 0 0 1 7.53-2 17.93 17.93 0 0 1 5.18.08c1.35.205 2.659.62 3.88 1.23l.49.27-.03-.03z" fill="#B0A8A2"/><path d="M139.41 139.62v-2.78a20.62 20.62 0 0 0-.32-2.34c-.91-5.22-3.48-8.84-7.53-10.55-5.29-2.23-12.7-1-20.18 3.34-.74.43-1.48.89-2.22 1.37l.06.83c.72-.48 1.44-.92 2.16-1.34 7.31-4.22 14.54-5.45 19.69-3.27 4 1.71 6.56 5.38 7.37 10.67.114.699.191 1.403.23 2.11v1.84l.38 31.34a7.77 7.77 0 0 1-.62 2.91 9.21 9.21 0 0 1-3.59 4.39l-23.9 13.8v.86l23.9-13.8a11 11 0 0 0 5-8.59l-.38-30.79h-.05z" fill="#5A463F"/><path fill="#9A908A" d="M109.16 128.66l-1.49-.86.05.82 1.49.87-.05-.83z"/><path d="M132.85 126l-2.93-1.57a11.58 11.58 0 0 1 4.84 5.62l2.79 1.62a11.46 11.46 0 0 0-4.7-5.67zm-16.61-3.49l-.17.89 1.98 1.07-.12.69.85.37.36-1.42-2.9-1.6z" fill="#E1D8D7"/><path d="M128.6 123.3a12.61 12.61 0 0 1 4.9 1.38 25.34 25.34 0 0 0-5.47-2.77 15.17 15.17 0 0 0-4.51-.63 22.48 22.48 0 0 0-6.31 1l-1 .28 2.79 1.62a24.15 24.15 0 0 1 9.57-.83l.03-.05z" fill="#FBF9FA"/><path d="M119 124.13l-.24 1.4c8.89-2.84 15.91-.54 18.76 6.13l1-1.07c-3-7-10.3-9.41-19.56-6.46h.04z" fill="#E9E0E0"/><path d="M108.5 193.36a2.34 2.34 0 0 0-1.39 1.94v.86a2.36 2.36 0 0 1 1.39-1.95l.07-.53-.07-.32z" fill="#6E5952"/><path fill="#5A463F" d="M123.05 184.96l-14.55 8.4v.85l14.55-8.4v-.85z"/><path d="M106.9 198.88l.09.06v-.86a5 5 0 0 1-1.18-1 2.39 2.39 0 0 1-.54-.73v-.08a2.55 2.55 0 0 1-.22-1 9.91 9.91 0 0 0 0 1.09c.06.52.273 1.01.61 1.41a4.53 4.53 0 0 0 1.27 1.08l-.03.03z" fill="#6E5952"/><path fill="#9A908A" d="M130.57 211.7l-23.59-13.62.01.86 23.58 13.62v-.86z"/><path fill="#5A463F" d="M154.77 203.31l-14.55 8.4v.86l14.55-8.41v-.85z"/><path d="M140.22 212.57v-.86a8.56 8.56 0 0 1-2.55.92 11.41 11.41 0 0 1-4.24.06 8.54 8.54 0 0 1-2.86-1v.86a9 9 0 0 0 2.9 1 11.81 11.81 0 0 0 4.31-.09 8.54 8.54 0 0 0 2.44-.9v.01z" fill="#6E5952"/><path d="M153.28 202.44l-14.55 8.4a7.33 7.33 0 0 1-6.67 0l-23.58-13.63c-1.83-1.06-1.82-2.79 0-3.85l14.57-8.36-1.49-.86-14.56 8.35c-2.66 1.54-2.68 4 0 5.59l23.59 13.62a10.62 10.62 0 0 0 9.65 0l14.55-8.4-1.49-.87-.02.01z" fill="#D1CDCA"/><path d="M172.23 182c-.18-.95-3.42-.6-4.5-.54-.58 0-2.17-.12-2.56-.61-.73-.9-1.92 1.44-2.75 1.4 1.12.34 3.76.07 4.69.26a4.78 4.78 0 0 0 2.16.11l3-.62h-.04z" fill="#221717"/><path d="M165.82 181.27c.55.88 2.32.26 3.47.69 2.56 1-3.62 4.42-5.54 4.5-4.12.19-1.14-5.4-6.14-9.24-2.3-1.76-5.45-4.11-2.38-8.32 1.64-2.25 1.79-3.91 1.8-6.75 0-5.58-1.95-13.86-1.19-18.88.44-2.86 3.23-19.93 3.5-20.18a8.24 8.24 0 0 1 7.12 2.34c2.43 2.47 2.4 6.57 2.31 11.14-.16 9-1.69 12.57-3.42 20.82-1.76 8.41-2.8 18.56.47 23.88z" fill="#F1B582"/><path d="M157.12 176.85c-2.22-1.72-4.75-4-1.89-7.95 1.64-2.25 1.79-3.91 1.8-6.75 0-5.58-1.95-13.86-1.19-18.88.28-1.82 1.51-9.36 2.43-14.68 3.32 2.74 6.56 5.45 8.77 7.12-4.34 5-6.26 7.7-6.93 15.09-.63 6.87.44 11.54-1.33 17a33.9 33.9 0 0 0-1.66 9.08v-.03z" fill="#E9A56D"/><path d="M155.33 168.58c-2.84 2.17-3.67 5.12-2.3 8.31a58.1 58.1 0 0 1 1.17 11.86l.92.39.79-.38.43-9.07c1.6 2.12 1.23 4.79 2.22 5.86a25.51 25.51 0 0 0 4.19 2.63 11.18 11.18 0 0 0 3.34-1c1.57-.75 6.87-4 6.07-5.29-.24-.37-.72-.37-1.2-.42-1.17-.13-2.69.24-3.14.11a.88.88 0 0 1 .54.51c.33.75-3.17 2-3.6 1.58-4.1-3.87-3.76-15-9.43-15.1v.01z" fill="#221717"/><path d="M155.33 168.58c-2.84 2.17-3.67 5.12-2.3 8.31a58.1 58.1 0 0 1 1.17 11.86l.92.39.79-.38.43-9.07a6.34 6.34 0 0 1 .9 1.7 32.86 32.86 0 0 1 .93-11.5 3.85 3.85 0 0 0-2.84-1.31z" fill="#0D0506"/><path d="M156.34 179.69c1.6 2.12 1.23 4.79 2.22 5.86a25.51 25.51 0 0 0 4.19 2.63c-1.36-5.2-3-9.31-6.41-8.49z" fill="#180F0F"/><path d="M181.49 187c-.18-.95-3.42-.6-4.51-.54-.57 0-2.16-.12-2.56-.61-.72-.9-1.91 1.44-2.75 1.4 1.13.34 3.76.07 4.69.26a4.78 4.78 0 0 0 2.16.11l3-.62h-.03z" fill="#221717"/><path d="M175.08 186.21c.54.88 2.31.26 3.47.69 2.55 1-3.63 4.42-5.55 4.5-4.11.19-1.14-5.4-6.14-9.24-2.29-1.76-5.45-4.11-2.38-8.32 1.65-2.25 1.79-3.9 1.81-6.75 0-5.58-1.95-13.86-1.19-18.88.44-2.86 3.22-19.93 3.49-20.18a8.19 8.19 0 0 1 7.12 2.34c2.43 2.47 2.4 6.57 2.32 11.14-.16 9-1.7 12.57-3.42 20.82s-2.81 18.56.47 23.88z" fill="#F1B582"/><path d="M166.38 181.79c-2.22-1.72-4.76-4-1.9-7.95 1.65-2.25 1.79-3.9 1.81-6.75 0-5.58-1.95-13.86-1.19-18.88.28-1.81 1.5-9.35 2.43-14.68 3.31 2.75 6.55 5.45 8.77 7.13-4.35 5-6.26 7.69-6.94 15.08-.63 6.87.45 11.54-1.32 17a33.07 33.07 0 0 0-1.66 9.08v-.03z" fill="#E9A56D"/><path d="M164.59 173.53a6.52 6.52 0 0 0-2.31 8.3 58.73 58.73 0 0 1 1.18 11.86l.91.39.8-.38.43-9.07c1.59 2.12 1.23 4.79 2.22 5.86a24.7 24.7 0 0 0 4.19 2.63 11.13 11.13 0 0 0 3.33-1c1.58-.75 6.87-4 6.07-5.28-.23-.38-.71-.38-1.19-.43-1.17-.13-2.7.24-3.15.11a.88.88 0 0 1 .55.51c.32.75-3.18 2-3.6 1.58-4.1-3.87-3.76-15-9.43-15.09v.01z" fill="#221717"/><path d="M164.59 173.53a6.52 6.52 0 0 0-2.31 8.3 58.73 58.73 0 0 1 1.18 11.86l.91.39.8-.38.43-9.07a6.31 6.31 0 0 1 .89 1.7 33.1 33.1 0 0 1 .93-11.5 3.79 3.79 0 0 0-2.83-1.3z" fill="#0D0506"/><path d="M165.6 184.63c1.59 2.12 1.23 4.79 2.22 5.86a24.7 24.7 0 0 0 4.19 2.63c-1.36-5.2-3-9.31-6.41-8.49z" fill="#180F0F"/><path d="M173.93 147.57a9.69 9.69 0 0 0-2.38-2c-5.27-3.85-15.49-9.58-21.67-13-2.37-1.24-4.65-2.53-7.09-3.64l-.21-.09c-1.76-.79-2-1.08-3.69-.34-.64.28-1.31.63-1.94.94-5 2.47-11 6-15.81 9l-11.07 6.86L143 164.77l.15.21 3.81-2.4c6.74-4.21 11.82-7.23 15.64-9.41l1.35-.74c1.52-.82 3.13-1.68 4.9-2.61l2.56-1.31c2-.82 2.12.25 1.62 1.35l.36-.21a1.84 1.84 0 0 0 .51-.63 1.5 1.5 0 0 0 0-1.45h.03z" fill="#F3EEEE"/><path d="M110.57 145a25.83 25.83 0 0 1-5.79 1.24c9.27 8.69 28 15.06 33.74 19.81.48.41 1.45-.35 2.09-.27a4.84 4.84 0 0 0 2.53-.81l-.33-.41c-7.66-8.09-25.68-15.83-32.24-19.56z" fill="#E1D8D7"/><path d="M173.93 147.57a9.69 9.69 0 0 0-2.38-2c-6.25-4.57-14.8-9.2-21.67-13-2.37-1.24-4.65-2.53-7.09-3.64l-.21-.09c-1.59-.71-2-1-3.24-.53 7.12 4 28.51 15.37 34.61 20.55a1.43 1.43 0 0 0 0-1.32l-.02.03z" fill="#EAE3E3"/><path d="M142.43 167.49a6.73 6.73 0 0 1-2 .67h-.05a2.43 2.43 0 0 1-1.28-.14c-1-.5-1.16-1.91-1-3.05l-6.45-3.72-27-15.59a3.23 3.23 0 0 0 .28 2.38 13.83 13.83 0 0 0 3.42 2.88 244.84 244.84 0 0 0 27.8 16.15 12.08 12.08 0 0 0 3.12 1.11 4.63 4.63 0 0 0 1.87-.14 6.86 6.86 0 0 0 1.37-.54l-.08-.01z" fill="#F3EEEE"/><path d="M173.17 147.63c-4.95 2.45-9.17 4.71-13.29 7.08-5.16 3-10.2 6.15-16.4 10l-.34.21c-1.93 1.13-2.91.91-3.2.43a3.13 3.13 0 0 1 .46-2.37l-1.59-.5c-1 2.06-1.11 3.76-.55 4.77.67 1.24 2.43 1.23 4.9-.18l.4-.26c6.17-3.88 11.17-7 16.31-10 4.09-2.36 8.24-4.62 13.24-7.05a2.07 2.07 0 0 0 .92-1.54c0-.61-.35-.9-.86-.65v.06z" fill="#E9E0E0"/><path d="M165.87 136.11c3.6-2 3.57-7.3.66-10.8-1.7-2-5-3-9.27-2.25-6.73 1.17-23.19 8.13-29.55 12.68l-8-10.15c-1.26 5.76-6.73 12.61-5.49 19 .77 4 1.26 5.15 4.67 7.15a25.83 25.83 0 0 0 6.59 2.84 13 13 0 0 0 8.35-1.09c7.9-3.78 27.36-14.8 32-17.42l.04.04z" fill="#E9A56D"/><path d="M175.14 141.4c3.6-2 3.58-7.31.66-10.8-1.41-1.69-3.91-2.72-7.14-2.57a17.19 17.19 0 0 0-2.13.32c-6.73 1.17-22.92 8.13-29.28 12.67l-13.31-13.56a67.18 67.18 0 0 0-.35 22.46c.77 3.94 1.45 5.14 4.87 7.15a26.15 26.15 0 0 0 6.58 2.84 13.19 13.19 0 0 0 8.36-1.09c7.9-3.79 27.09-14.8 31.74-17.42z" fill="#F1B582"/><path d="M165.87 136.11c2.7-1.52 3.36-4.87 2.29-7.92-2.89-2.09-6.76-4.42-9.82-5.29-.35 0-.71.1-1.08.16-6.73 1.17-23.19 8.13-29.55 12.68l-8-9c-1.26 5.75-6.73 11.42-5.49 17.85.77 4 1.26 5.15 4.67 7.15a25.83 25.83 0 0 0 6.59 2.84 13 13 0 0 0 8.35-1.09c7.9-3.78 27.36-14.8 32-17.42l.04.04z" fill="#361110"/><path d="M175.14 141.4a11.8 11.8 0 0 0-4.47-11.22c-.7-.6-1.59-1.29-2.59-2a15.08 15.08 0 0 0-1.57.21c-6.73 1.17-22.92 8.13-29.28 12.67l-13.31-13.56a67.18 67.18 0 0 0-.35 22.46c.77 3.94 1.45 5.14 4.87 7.15a26.15 26.15 0 0 0 6.58 2.84 13.19 13.19 0 0 0 8.36-1.09c7.9-3.79 27.09-14.8 31.74-17.42l.02-.04z" fill="#431512"/><path d="M120.54 122.25a12.4 12.4 0 0 1-1.12 3.67 31.12 31.12 0 0 0-5.13 14.89c-.33 7.5 2 11.87 7.83 16.27 8.4 6.38 16.55 5.43 26.19-1.07-.54-3.1 0-6.82-.13-9.88-.34-4.28 0-7.46-1.53-11.6-1.22-3.41-2.92-5.56-4-9.09-6.48 6.94-13.73 1.47-22.1-3.19h-.01z" fill="#431512"/><path d="M151.25 83.93l-3.05-1.5a15.29 15.29 0 0 1-1.2 5.73 17.82 17.82 0 0 1-7 8.45l2.89 1.68a16.36 16.36 0 0 0 8.35-14.36h.01z" fill="#B0A8A2"/><path fill="#B0A8A2" d="M147.75 45.66l.45 36.77 2.89 1.67-.21-36.6-.08-3.68-3.05 1.84z"/><path d="M95.36 122.24l.89.63 2.09 1c31.11-17.73 13.56-7.65 44.56-25.55l-2.9-1.71c-31 17.94-13.64 7.73-44.65 25.63h.01z" fill="#D1CDCA"/><path d="M98.34 123.84l-3-1.6a6.87 6.87 0 0 1-6.43.24c3.86 2.77 5.83 3.48 9.41 1.36h.02z" fill="#C8C3BE"/><path d="M88.3 119.86L85.09 118c0 3.14 1 5.32 2.76 6.36l3.37 2c-1.8-1-2.91-3.26-2.92-6.41v-.09z" fill="#D1CDCA"/><path fill="#DEDCD9" d="M85.06 82.21v35.74l3.21 1.91.32-39.29-3.56 1.64z"/><path d="M89.7 80.06l.11 38.94c0 5.39 3.84 7.57 8.53 4.85 31-17.87 13.6-7.68 44.56-25.55a17.81 17.81 0 0 0 7-8.54 15.14 15.14 0 0 0 1.2-5.65l-.45-36.86v-3.3l1.45-.87.5 40.19c0 6.13-4.31 13.62-9.64 16.7-31 17.89-13.58 7.73-44.57 25.62-5.51 3.18-10 .62-10-5.72-.07-13-.43-25.94-.48-38.92l1.88-.88-.09-.01z" fill="#5A463F"/><path d="M269.23 151.91l-3.05-1.5a15.48 15.48 0 0 1-1.25 5.73 17.88 17.88 0 0 1-6.94 8.45l2.89 1.68a16.36 16.36 0 0 0 8.35-14.36z" fill="#B0A8A2"/><path fill="#B0A8A2" d="M265.73 113.64l.45 36.77 2.89 1.67-.21-36.6-.08-3.68-3 1.84z"/><path d="M213.34 190.22l.89.63 2.09 1c31.1-17.74 13.56-7.66 44.56-25.56l-2.88-1.7c-31 17.94-13.64 7.73-44.65 25.63h-.01z" fill="#D1CDCA"/><path d="M216.32 191.83l-3-1.61a6.87 6.87 0 0 1-6.43.24c3.86 2.77 5.83 3.48 9.41 1.37h.02z" fill="#C8C3BE"/><path d="M206.28 187.84l-3.21-1.91c0 3.14 1 5.32 2.76 6.36l3.37 2c-1.8-1.05-2.91-3.26-2.92-6.41v-.04z" fill="#D1CDCA"/><path fill="#DEDCD9" d="M203 150.19v35.74l3.21 1.91.32-39.29z"/><path d="M147.66 30.31l-4.2 2.44-4.21 2.45c-24.09 14-37.79 22.09-61.89 36.07a47.33 47.33 0 0 0-5 3.25 4.23 4.23 0 0 0-1.19 3.19v1.1a4.55 4.55 0 0 0 2 4l8.32 4.8A17535.234 17535.234 0 0 0 156.68 131c24.41 14.09 10.47 5.66 34.88 19.75l2 1.15 8.31 4.8 4.19-2.44 8.45-4.9 4.24-2.47 4.23-2.47 4.26-2.47 25.6-14.87c8.49-4.94 6.61-4 15.11-8.89l4.21-2.44 4.2-2.45.42-.29.14-.12a4.48 4.48 0 0 0 1.32-2.33 10.53 10.53 0 0 0 .13-2.32v-.77l-.07-.36-.08-.35-.1-.32-.11-.3-.13-.28-.13-.25-.13-.22-.14-.19-.13-.17-.14-.14-.11-.13-.11-.1-.11-.1-.11-.08-.1-.09c-.26-.17-.53-.31-.79-.47l-7.78-4.49-8.32-4.8c-32.34-18.68-.95-.34 13.3 8.07l-8.37-4.83-8.36-4.83L206.07 64l-8.37-4.8-8.36-4.83-8.34-4.82-8.35-4.82-8.33-4.81-16.64-9.61h-.02z" fill="#47160D"/><path d="M147.65 30.75v-.39l-4.19 2.44-4.22 2.45c-24.09 14-37.79 22.08-61.89 36.06l-4.19 2.44.22-.11.18-.08h1.01l73.09-42.57-.01-.24z" fill="#47160D"/><path d="M268.06 99.48l-8.32-4.81c-32.34-18.67-.94-.33 13.3 8.08l-8.37-4.83-8.36-4.83-50.26-29-8.37-4.83-8.36-4.83-8.32-4.84-8.35-4.82-8.37-4.77-16.64-9.6v.41L275 103.89c.485.005.96.136 1.38.38l-8.31-4.8-.01.01z" fill="#38110C"/><path d="M71.12 78.85a4.57 4.57 0 0 0 2 4c52.27 30.15 66.15 37.8 118.42 68l2 1.16 8.31 4.79v-2.82L81.15 84.29l-10-5.44h-.03z" fill="#180B0A"/><path d="M201.87 154v2.78c26.89-15.61 43.41-25.32 70.29-41l4.2-2.44a4.65 4.65 0 0 0 2-4c-29 16.85-47.56 27.73-76.5 44.57l.01.09z" fill="#1E0D0B"/><path fill="#270D0A" d="M201.88 152.85v1.09l76.49-44.56v-1.1l-5.78 2.16-70.71 42.41z"/><path fill="#210D0B" d="M71.12 77.75v1.09l130.76 75.1v-1.09L81.76 83.16l-10.64-5.41z"/><path d="M277.71 105.66l-9.52 3.6-66.31 40.57v3l76.5-44.57a5.11 5.11 0 0 0-.66-2.62l-.01.02z" fill="#2C0F0C"/><path d="M71.92 75a5.12 5.12 0 0 0-.8 2.8l130.75 75.1v-3.26L76 76.41l-4-1.46-.08.05z" fill="#270D0A"/><path d="M201.88 148.69v-2.23L87.23 79.19l-12.67-5.84a2.79 2.79 0 0 0-.58.07h-.36l-.16.07-.16.07-.16.09-.16.1-.18.25-.18.16-.21.2-.23.26-.26.36 130 74.64v-.9l-.04-.03z" fill="#47160D"/><path d="M201.88 149.25v.58l75.83-44.17a3.25 3.25 0 0 0-2.73-1.77l-9.53 4-63.56 38.57v2.79h-.01z" fill="#38110C"/><path d="M147.65 30.78c-27.25 15.84-45.84 26.74-73.09 42.57 54.65 31.55 72.67 41.57 127.32 73.11 27.25-15.83 45.83-26.73 73.09-42.57-54.65-31.55-72.68-41.56-127.32-73.11z" fill="#2C0F0C"/><path d="M235.78 67c-6.57.85-11.77.57-19.34 1.56a8.76 8.76 0 0 0 .19-3.1A166.91 166.91 0 0 0 234 62.31c1.07-.35.85-4.32 1.23-5.84.25 2.85.55 5.83.58 9.45V67h-.03z" fill="#ACB3BD"/><path d="M108.38 87.51c29.35-16.61 141.05 8.14 92.88 54.34l-92.88-54.34z" fill="#0F0607"/><path d="M193.84 89l-39.48-23v.22l.13.39.09.08 39.48 23a5 5 0 0 0-.19-.69h-.03z" fill="#E1D8D7"/><path d="M195.06 88l-39.44-23a.77.77 0 0 0-.8.13l39.49 23.05a1.06 1.06 0 0 1 .75-.16V88z" fill="#FBF9FA"/><path fill="#F3EEEE" d="M179.81 97.92l.24-.44-21.29-17-18.2-6.05-.23.44.07.14 39.48 23.05-.07-.14z"/><path fill="#FBF9FA" d="M154.82 65.07l-.16.09 13.74 8.57 25.75 14.49.16-.1L168.94 73l-14.12-7.93z"/><path fill="#F7F3F3" d="M180.05 97.48l-39.49-23.05 14.1-9.27 39.49 23.06-14.1 9.26z"/><path d="M195.24 88.38c0-.45-.29-.64-.93-.26l-.16.1-14.1 9.26-.24.44.27.11 13.76-9v.22c0 .46.33.65.72.42a1.43 1.43 0 0 0 .7-1.26l-.02-.03z" fill="#E9E0E0"/><path d="M180.62 76.62l-4.71-3.47-6-2.76a.84.84 0 0 0-.38.66l.11.25 10.71 6.22.27-.9z" fill="#EAE3E3"/><path fill="#F3EEEE" d="M180.07 64.52l-10.16 5.87 10.87 6.34 10-5.98-6.23-3.77-4.48-2.46z"/><path d="M193.3 61.48l-4.68-3.09-6-3.14a15.1 15.1 0 0 1 .54 5l5 3.16 5.7 3.06a15.32 15.32 0 0 0-.55-4.94l-.01-.05z" fill="#EAE3E3"/><path d="M216.83 67.69c3.2-1 .1-6.13-1.83-6.9-2.74-1.08-2.08 8.07 1.83 6.9z" fill="#979CA6"/><path d="M216.12 61.23c-5.8.22-5.19-1.16-8.4-.59-1.38.25-5.77 3.51-7.55 5-1.12.94-2.78 1.53-2.24 2.73.36.77.39.7 2.74 1 2.35.3 6.78-1.7 9.47-2.09 2.05-.3 5.35.61 7.79-1.71l-1.81-4.39v.05z" fill="#F1B582"/><path d="M217 63.72c-5.79.21-5.14-.19-8.35.39a17.2 17.2 0 0 0-3.78 1.89c-1.26.72-3.63 3.46-4.2 3.46 2.35.35 6.78-1.7 9.47-2.09 2.05-.3 5.35.61 7.79-1.71l-1-1.9.07-.04z" fill="#DE955C"/><path d="M213.21 65c-.71.16-4.64.36-6.08 1.45a1.2 1.2 0 0 0-.31 1.85c.23.27 1-.32 3.24-.7 3.06-.52 6 2.08 7.3-2.69l-4.15.09z" fill="#DE955C"/><path d="M213.21 65c-.71.16-4.64.36-6.08 1.45a1.2 1.2 0 0 0-.31 1.85c.12.14.39 0 .92-.12 0-.91.06-1 1-1.28 1.91-.52 2.89-1.13 5-1.91l-.53.01z" fill="#F1B582"/><path d="M236.15 66.1c-6.58.85-11.77.57-19.35 1.56.87-3.52-.64-6.7-2.32-7 6.37-1.55 14-4.15 21.08-5.25.26 2.9.56 5.91.6 9.59v1.08l-.01.02z" fill="#B4BCC6"/><path d="M189.55 46.23L178.84 40c.39.22.59.85.87 1.91l9.38 5.65 1.33.58c-.27-1.06-.48-1.69-.87-1.92v.01z" fill="#EAE3E3"/><path d="M183.13 60.2a5.67 5.67 0 0 1-3.06 4.32l10.71 6.23c1.9-.89 3.14-2.12 3.07-4.33l-10.72-6.22z" fill="#E1D8D7"/><path fill="#F3EEEE" d="M190.43 48.15l-10.72-6.23 2.88 13.33 10.72 6.23-2.88-13.33z"/><path d="M190.06 45.29l-10.71-6.22c-.55-.32-1.36 0-1.87.26s-.8.4-1.19.62L187 46.16c.54-.3 2.36-1.31 3.07-.87h-.01z" fill="#F3EEEE"/><path d="M194.31 62.16l-.26-1.3-2.88-13.35c-.72-2.74-1.35-2.94-4.18-1.35a.84.84 0 0 0-.38.66c0 .24.17.34.38.22 2.57-1.45 2.83-1.21 3.43 1.11l2.88 13.33.26 1.29a8.32 8.32 0 0 1-.22 5.4 6.27 6.27 0 0 1-2.56 2.58l-10.16 5.87a.83.83 0 0 0-.38.66l.19.27h.15l10.17-5.87a7.87 7.87 0 0 0 3.15-3.26 9.3 9.3 0 0 0 .37-6.21l.04-.05z" fill="#E9E0E0"/><path d="M187 46.16l-10.71-6.22a.84.84 0 0 0-.39.65l.12.25 10.71 6.23c-.21-.17 0-.76.27-.91z" fill="#E9E0E0"/><path fill="#FEFDFE" d="M168.13 8.67l-5.72-2.75h-.31l5.5 2.79h.06l.47-.06z"/><path d="M166.87 51.86c.18-13.953.14-27.767-.12-41.44v-.38l-5.17-3.29v.26c.28 13.68.32 27.497.12 41.45a.59.59 0 0 0 .17.5l5.26 3.63c-.17-.1-.28-.34-.27-.73h.01z" fill="#F7F3F3"/><path d="M162.1 6a1.17 1.17 0 0 0-.49.8l5.16 3.38a2.13 2.13 0 0 1 .83-1.39L162.1 6z" fill="#FBF9FA"/><path fill="#FEFDFE" d="M198.6 26.28L168.16 8.69l-.04-.02-.01-.01h-.02l-.02-.01-.03-.01h-.17l-.02.01h-.04l-.01.01h-.02l-.05.02-.02.01h-.01l-.1.05 30.44 17.6.56-.06z"/><path d="M197.31 69.45c.18-13.94.14-27.753-.12-41.44v-.29l-30.43-17.59-.17.37c.27 13.68.34 27.33.15 41.28a1 1 0 0 0 .41.82l30.44 17.59a.78.78 0 0 1-.28-.74z" fill="#F7F3F3"/><path d="M167.6 8.74a2 2 0 0 0-.84 1.39L197.2 27.8a2.27 2.27 0 0 1 .84-1.46L167.6 8.74zm36.27 21.18l-5.24-3.62h-.59l5.51 3.6h.32z" fill="#FEFDFE"/><path d="M203.17 72.45a14.42 14.42 0 0 0 .59-4.34c.13-12.42-.47-24.9-.71-37.11v-.15l-5.85-3.05-.11.41c.27 13.68.32 27.3.14 41.24a.75.75 0 0 0 .41.76l5.73 2.79c-.12-.06-.2-.22-.2-.52v-.03z" fill="#F7F3F3"/><path d="M198 26.34a1.81 1.81 0 0 0-.84 1.46l5.85 3.05a1.35 1.35 0 0 1 .5-.91l-5.51-3.6z" fill="#FBF9FA"/><path d="M204.06 30.44c0-.56-.28-.63-.51-.5a1.23 1.23 0 0 0-.5 1.06c.267 13.68.307 27.497.12 41.45 0 .53.26.63.5.48a1.28 1.28 0 0 0 .51-1.09l.91-21.4c-.25-6.71-.78-13.26-1-20h-.03z" fill="#E9E0E0"/><path fill="#FFF" d="M201.59 31.52L163.1 9.13l.16 34.27 38.47 22.27-.14-34.15zm39.79 57.79l-10-6-10.15-6.16c-4.413 2.567-8.823 5.13-13.23 7.69l-13.17 7.68 10.32 6 10.13 5.88c4.327-2.5 8.66-5.007 13-7.52l13.1-7.56v-.01z"/><path d="M216.32 94.93c-1.71 1-1.8 2.55-.21 3.48a7.33 7.33 0 0 0 5.94-.1c1.28-.74 1.31-1.14 1.35-1.77h-1.51c0 .41 0 .67-.86 1.15a4.73 4.73 0 0 1-3.82.06c-1-.6-1-1.6.14-2.23l-1-.61-.03.02z" fill="#50A4DC"/><path d="M219.34 94.16a6.3 6.3 0 0 0-3 .77l1 .61a4 4 0 0 1 1.94-.5c0-.29 0-.58.05-.88h.01z" fill="#E4005C"/><path d="M222.28 94.84a5.67 5.67 0 0 0-2.93-.68l-.06.88a3.68 3.68 0 0 1 1.88.44c.434.195.715.624.72 1.1h1.5a1.88 1.88 0 0 0-1.11-1.71v-.03z" fill="#FABC00"/><path d="M213.52 88.79a6.52 6.52 0 0 0 6-.09c1.72-1 1.82-2.57.22-3.53l-6.22 3.62z" fill="#50A4DC"/><path d="M216.77 84.48a5 5 0 0 0-3.05.77c-1.29.75-1.81 2.59-.2 3.54l3.11-1.79c.05-.83.1-1.67.14-2.5v-.02z" fill="#E4005C"/><path d="M220 84.84a5.8 5.8 0 0 0-3-.7c0 .84-.1 1.68-.14 2.51l3.14-1.81z" fill="#FABC00"/><path fill="#F1EEEE" d="M239.49 89.35l-9.09-5.5-9.23-5.59-1 .61 9.24 5.57 9.1 5.5 1-.59zM234 92.51L224.89 87l-9.26-5.55c.56-.33 1.12-.66 1.69-1l9.25 5.56 9.11 5.47-1.67 1-.01.03zm-.55.33l-4.08-2.44-4.09-2.4-.91.53 4.1 2.45c1.36.82 2.72 1.62 4.07 2.44l.91-.53v-.05zm-6.63 3.83l-4.08-2.42-4.11-2.44 5.23-3 4.1 2.45 4.04 2.4-5.21 3zM216 91.1l-4.16-2.46-4.19-2.48-.85.5 4.18 2.47 4.16 2.46.86-.49zm-6.26 3.61l-4.18-2.44-4.2-2.46 4.92-2.87 4.18 2.47 4.17 2.46zm8.42 6.96L209 96.3l-9.35-5.47 1-.56a5135.4 5135.4 0 0 1 9.34 5.47l9.21 5.38-1 .55h-.04zm-2.59 1.5l-9.22-5.36-9.35-5.45 1.88-1.1 9.36 5.46 9.21 5.38-1.86 1.07zm20.8-12.02l-9.11-5.48-9.26-5.56 1.32-.78 9.24 5.58 9.1 5.49-1.3.75z"/><path fill="#50A4DC" d="M198.32 50.14l-2.64-1.55v9.91l2.64 1.56zM194.58 45l-2.64-1.55v12.86l2.64 1.56V45zm-3.73 2.58L188.21 46v8.06c.87.53 1.75 1.05 2.63 1.56v-8.06l.01.02zm-3.73.96L184.48 47v4.9l2.64 1.56v-4.92z"/><path fill="#FABC00" d="M198.32 50.14l-2.64-1.55V46l2.64 1.56v2.63z"/><path d="M198.31 46.35l-2.64-1.56v1.16l2.64 1.56v-1.16z" fill="#E4005C"/><path d="M194.58 45l-2.64-1.55v-3.22l2.64 1.56V45zm-3.73 2.58L188.21 46v-2.41l2.63 1.56v2.43h.01z" fill="#FABC00"/><path d="M194.56 40.79l-2.63-1.55v1l2.64 1.56v-1l-.01-.01zm-3.72 3.11l-2.64-1.56v1.25l2.63 1.56V43.9h.01z" fill="#E4005C"/><path d="M187.12 48.54L184.48 47v-3.28l2.64 1.56v3.28-.02z" fill="#FABC00"/><path fill="#E4005C" d="M187.11 43.13l-2.64-1.55v2.12l2.64 1.56z"/><path d="M183.69 41.5l-2.64-1.5v9.91l2.63 1.55v-9.91l.01-.05zm-3.75-5.16l-2.64-1.56v12.87l2.7 1.56V36.34h-.06zm-3.72 2.6l-2.64-1.56v8.06l2.67 1.56v-8.06h-.03zm-3.73.97l-2.63-1.56v4.89l2.64 1.55v-4.88h-.01z" fill="#50A4DC"/><path d="M183.69 41.5l-2.64-1.5v-2.64l2.64 1.56v2.58z" fill="#FABC00"/><path fill="#E4005C" d="M183.68 37.71L181 36.15v1.16l2.64 1.56v-1.16z"/><path d="M179.94 36.34l-2.64-1.56v-3.21l2.64 1.55v3.22zm-3.72 2.6l-2.64-1.56v-2.42l2.64 1.56v2.42z" fill="#FABC00"/><path fill="#E4005C" d="M179.93 32.16l-2.64-1.56v1l2.64 1.55v-1zm-3.72 3.1l-2.64-1.56V35l2.64 1.56z"/><path d="M172.49 39.91l-2.63-1.56v-3.28l2.63 1.55v3.29z" fill="#FABC00"/><path d="M172.48 34.5l-2.64-1.5v2.12l2.63 1.55V34.5h.01z" fill="#E4005C"/><path d="M243.56 80.88l.95-2-.51-3.71c-1.78-1.07-3.13-1.42-3.88-1.12-2.72 1.1.05 8.3 3.46 6.83h-.02z" fill="#979CA6"/><path d="M241.73 73.71c-3.59 2-9.1 2.15-10.61 4.44-1.31 2 .67 4.35 2.24 5.24 1.28.71 4.72-.56 7-1.25 2-.61 2.71-2.8 4.19-3.12.57-2.15-1.48-3.88-2.83-5.31h.01z" fill="#F1B582"/><path d="M231.24 78l-.12.18c-1.31 2 .67 4.35 2.24 5.24 1.28.71 4.72-.56 7-1.25 2-.61 2.71-2.8 4.19-3.12a3.24 3.24 0 0 0-.4-2.46c-2.22.91-3.3 2.74-4.87 3.47-2.18 1-4.1 1.37-5.19 1a22.67 22.67 0 0 1-2.85-3.06z" fill="#DE955C"/><path d="M231.82 77.48c-1.77.78-4.68 1.89-6.47 2.64-1.26.52 0 2.24 1.21 1.88 1.21-.36 4.19-1.39 4.2-1.39 1.13-.58 2-1.87 1.06-3.13z" fill="#F1B582"/><path d="M225.29 81.48a.93.93 0 0 0 1.27.52c1.16-.35 4.19-1.39 4.2-1.39a2.69 2.69 0 0 0 1.39-1.61l-6.86 2.45v.03z" fill="#DE955C"/><path d="M168.7 29.7l-2.63-1.55v12.86l2.63 1.56V29.7z" fill="#50A4DC"/><path d="M168.7 29.7l-2.63-1.55v-3.22l2.63 1.56v3.21z" fill="#FABC00"/><path fill="#E4005C" d="M168.69 25.52L166.06 24v1l2.63 1.56v-1z"/><path d="M270 70c-.58 2.22-.4 3.76-2.4 5.27a20.18 20.18 0 0 1-3.41 1.53c-5 2.31-12.95 3.12-20.74 4.2.33-4.18-1-6.58-3.39-6.89 6.47-2.63 14.31-3.92 20.78-5.83a13 13 0 0 1 2.44-.47L270 70z" fill="#B4BCC6"/><path d="M270 70c-.58 2.22-.4 3.76-2.4 5.27a20.18 20.18 0 0 1-3.41 1.53c-5 2.31-12.95 3.12-20.74 4.2a9.74 9.74 0 0 0-.54-4.57c5.76-1.71 12.29-2.85 19.78-4.55 2.93-.67 2.65-.06 3.31-2.92l.06-.24L270 70z" fill="#ACB3BD"/><path d="M268.79 40.47c-1.17 9.6-2.41 19.78-4.2 29.29l-21.66 5.57a3.79 3.79 0 0 0-2-1.52l20.49-5.23c1.25-14.27.82-19.9 7.33-28.11h.04z" fill="#BDC6CD"/><path d="M181.31 107.18c.44 2.26-2.66 4.56-5.13 6.1a18.26 18.26 0 0 1-6.26 2.81c-2 .36-4.2-2.32-3.51-3.82 2.24-4.78 9.68-8.47 14.9-5.09z" fill="#F7F3F3"/><path d="M119.36 83.17c-7.77-.88-7.77 12.53-4.5 18.27 4 7 6.32 13.18 5.59 21.45 4.75 5.7 16.68 11.11 22.28 2.74a26.35 26.35 0 0 1-1-6.63c0-3.35 1.76-6.5 2-9.81 3.24-4.75 4.16-8.57 3.17-10.83-2.84-6.47-20.66-14.41-27.55-15.19h.01z" fill="#8CBCE5"/><path d="M119.36 83.17c-7.77-.88-7.77 12.53-4.5 18.27 4 7 6.32 13.18 5.59 21.45a21.67 21.67 0 0 0 9 6.09c-4.45-9.39-9.06-29.25-7.67-37.93 3.89 2.15 9.44 2.88 17.45.12-6.57-4.09-15.42-7.5-19.82-8h-.05z" fill="#7FB2E0"/><path d="M121.72 88.09c-.58 3.8 9.36 6 12.59 2.48.28-4.45-.16-7.52 1.55-11.87l-10.08-3-2.63-1c1.26 5.54.55 8.31-1.43 13.31v.08z" fill="#E9A56D"/><path d="M140.73 81.25c-.29.51-4.16.39-5.64-.17-1.71 2.65-9.74 3.08-11.79 2.56.11-1 .48-2.14.48-2.71a2 2 0 0 0-.89-1.76c-1.31-1.78-3.87-3.68-5-6.45 1.28-4 12.81 1.25 22.79 8.53h.05z" fill="#DE955C"/><path d="M140.68 81.3c-.81.57-6.2-1.91-6.68-1.87-4.58.43-10.14 1-11.11-.26-1.31-1.78-3.87-3.68-5-6.45-1.72-4.44-1.65-9.53 2.32-13.25 6.89-6.46 18.31-2.44 20.23 4.45.78 2.83-.2 3.59 0 5.5a13 13 0 0 0 1.07 2.36c.26.44-.2 2.43-.23 4.91 0 2.13-.13 4.22-.67 4.61h.07z" fill="#E9A56D"/><path d="M140.68 81.3a2.15 2.15 0 0 1-1.36-.07 5.81 5.81 0 0 1-1.55-2.89c-.15-3 1.15-5.49 1-6.69-.22-2.53-1-1.2-.22-4a3.61 3.61 0 0 0-.35-2.75c-.5-1.44.24-4.46.24-4.47a6.7 6.7 0 0 1 1.08 1.4 8.64 8.64 0 0 1 .93 2.11c.78 2.83-.2 3.59 0 5.5a13 13 0 0 0 1.07 2.36c.26.44-.2 2.43-.23 4.91 0 2.13-.13 4.22-.67 4.61l.06-.02z" fill="#F1B582"/><path d="M117.94 72.72c-1.72-4.44-1.65-9.53 2.32-13.25a13.59 13.59 0 0 1 8.43-3.47c2.24-.14 7 .74 8.7 2.47.07.06-1.54 2.16-.84 3.36a7.61 7.61 0 0 1 .53 5c-1.07 3.92-.48 6.06-1.8 8.16-1.1 1.93-1.7 3.23-2.69 3.94-1.69 1.2-7 2.59-8.79 1.75-1.6-.74-5.35-6.64-5.86-8v.04z" fill="#35180D"/><path d="M135.12 75.53c.32-1.18-.06-1.57-.56-1.41a3.31 3.31 0 0 0-1.56 2.27c-.51 2 .64 4.33 2.42 3.23.47-.69-.3-2.28-.28-4.09h-.02z" fill="#E9A56D"/><path d="M135.12 75.53c.32-1.18-.06-1.57-.56-1.41a3.31 3.31 0 0 0-1.56 2.27c-.51 2 .64 4.33 2.42 3.23-1.59.22-1.6-1.71-1.22-2.94.26-.83.72-1.45.94-1.15h-.02z" fill="#F1B582"/><path d="M134.43 76.11c.51.8.71 1.28.59 1.57-.12.29-.38.46-.92 0a2.91 2.91 0 0 1 .33-1.59v.02z" fill="#DE955C"/><path d="M137.08 58.28c-5.72-2.66-13.87-1.67-15.33 1.26 3.66 3.17 2.59 11.73 7.61 15.37 9.12 6.58 15.39-15.19 7.72-16.63z" fill="#35180D"/><path d="M137.08 58.28c5.66 2.8 1.5 14-2.3 15.94-3 1.51-4.95.15-6.46-2.26-2.65-4.22-3.88-11.66-6.57-12.42 3.07 2.66 3.23 9.26 6 13.41 1.6 2.38 4 4.1 6.94 2.77 5.81-2.6 8.4-16.3 2.37-17.44h.02z" fill="#4C2410"/><path d="M138.27 59.19c1.31 3.86.61 11.81-5.36 12.46-7.09.78-6.67-11.2-10.8-12.14 2.23 1.35 2.62 4 3.34 6.06 1.24 3.51 3.7 9.39 9.39 6.63 5-2.42 5-9.09 3.43-13v-.01z" fill="#4C2410"/><path d="M137.79 58.78c.93 3.65-.27 10.78-6 10.61-5.52-.16-5.13-8.67-8.94-9.4 3.9 1.92 2.72 10.18 8.84 10.36 6.12.18 7.75-8 6.09-11.57h.01z" fill="#4C2410"/><path d="M126.22 70.66c.3-4.81-1.37-9.86-3.86-11.38a5.39 5.39 0 0 0-4.89-.13c-3.2 1.22-3.94 6.5-1.77 11.31 1.67 3.73 5.65 8.72 8 8.58 1.7-.1 2.17-3.51 2.47-8.38h.05z" fill="#35180D"/><path d="M126.22 70.66a17 17 0 0 0 0-2.67 8.23 8.23 0 0 1-11.72-2.65c.07 1.77.489 3.51 1.23 5.12 1.67 3.73 5.64 9.9 8 9.76 1.7-.1 2.18-4.69 2.48-9.56h.01z" fill="#27120C"/><path d="M137.44 58.45a9.15 9.15 0 0 1-.8 6.59c-3.22 5.44-7.48 2.45-10.09-1.81a8 8 0 0 0-4.19-3.78 9 9 0 0 1 4.64 3.34c2.46 3.05 5.75 6.73 9.13 1.86a8.81 8.81 0 0 0 1.34-6.2h-.03z" fill="#4C2410"/><path d="M121.61 85.25l7.19 4.23 5.55-.15.68 3c-5.83 1.27-10.12.46-13.3-1.3a25.93 25.93 0 0 0-.25 4.24h-1.63l-2.33-6.81 2.39-2.89 1.7-.31v-.01z" fill="#7FB2E0"/><path d="M123.22 83.45c.26 2.39 7.27 3.87 11.16 2.76l.09-.47a8.36 8.36 0 0 1 2.41 3.69c-3.42 3.3-14.15 1.76-15.46-2.11-.32-.92 1-2.65 1.8-3.87z" fill="#9DC8EB"/><path d="M107.94 98.82c2.19 1.2 4.72 2.67 7.43 4.25a1.57 1.57 0 0 1 1.21-.16l-.19-.11c-.75-.44-1.51-.87-2.27-1.3-1.08-.61-2.16-1.22-3.26-1.82l-1.88-1c-1.75-.93-3.55-1.87-5.35-2.7a13.72 13.72 0 0 0-1.95-.77 1.47 1.47 0 0 0-.83-.08 1.26 1.26 0 0 0-.52.27c.39-.22 1.93.53 2.9 1 1.61.79 3.15 1.55 4.71 2.43v-.01z" fill="#FEFDFE"/><path d="M122.12 141.21c.1-10.13-4.19-22.56-6.82-30.18-.63-1.83-1.17-3.41-1.53-4.59-.36-1.18.75-2.9 1.61-3.42l-.74-.42c-3.2-1.85-6.61-3.81-10-5.52-1.14-.56-2.16-1.14-3.35-1.63-.42-.18-.67-.23-.89-.14a1.81 1.81 0 0 0-.78 1 2.25 2.25 0 0 0 .16 1.61c.74 2.36 1.6 4.71 2.4 7.06 1.31 3.91 2.92 9 4.09 14 .42 2 .79 3.77 1.08 5.73a34.15 34.15 0 0 1 .07 12.26 30.68 30.68 0 0 1-2.11 6.43c-.62 1.44-1.3 3.35-.48 4.66a13.83 13.83 0 0 0 3.42 2.88c3.23 2.24 6.87 4.43 10.26 6.42l1.22.71a2.84 2.84 0 0 1-1.13-2.67 9.25 9.25 0 0 1 .95-3.27 28.51 28.51 0 0 0 2.52-10.91l.05-.01z" fill="#F7F3F3"/><path d="M104.6 145.67a3.23 3.23 0 0 0 .28 2.38 13.83 13.83 0 0 0 3.42 2.88c3.23 2.24 6.87 4.43 10.26 6.42l1.22.71a2.84 2.84 0 0 1-1.13-2.67c.017-.5.104-.995.26-1.47l-14.31-8.25z" fill="#F3EEEE"/><path d="M113.74 105.48a4.14 4.14 0 0 1 1.64-2.46l-.74-.42c-3.2-1.85-6.61-3.81-10-5.52-1.14-.56-2.16-1.14-3.35-1.63-.42-.18-.67-.23-.89-.14a1.81 1.81 0 0 0-.78 1 1.65 1.65 0 0 0 0 1l4.4 2.54 5.13 3 4.56 2.64.03-.01z" fill="#FBF9FA"/><path d="M120.36 105.1l-3.78-2.19a1.16 1.16 0 0 0-1.2.11l3.72 2.16a1.5 1.5 0 0 1 1.26-.08z" fill="#FEFDFE"/><path d="M119.71 113.29c-.82-2.36-2.13-5.17-.61-8.11l-3.72-2.18c-1.06.59-3.36 2.16-3 3.32.36 1.16.8 2.86 1.43 4.69 5 14.39 10.17 24.81 3.87 39.31-.94 2.17 0 6.47 2.09 7.72l3.71 2.16c-1.62-.95-.52-3.08.12-4.88 5.82-16.28 2.25-24.24-3.9-42l.01-.03z" fill="#F7F3F3"/><path d="M118.83 153.87c-.51 1.66-.57 3.3 1 4.19l3.71 2.16c-1.33-.78-1.29-2.56-.88-4.17l-3.78-2.18h-.05z" fill="#F3EEEE"/><path d="M117.55 107.67a2.29 2.29 0 0 1 .22-.82 3.78 3.78 0 0 1 1.33-1.67l-3.72-2.18c-2.19.06-5.49.39-1.66 2.44l.58.34 3.25 1.87v.02z" fill="#FBF9FA"/><path d="M134.88 114.89l-.06-.14c-.28-.64-2-1.84-2.66-2.28l-1.42-1c-3.39-2.25-6.88-4.36-10.41-6.41a1.19 1.19 0 0 0-1.23.09l1.93 1.14.11.06c1.58 1 3.18 1.88 4.75 2.85 1.57.97 7.55 4.69 8 5.5.29-.17.81-.22.93.17l.06.02z" fill="#FEFDFE"/><path d="M143.28 152c0-.63.05-1.36 0-2.21v-.44c0-.86-.06-1.74-.13-2.63-.54-7-2.64-14.55-4.41-20.11l-.3-.93c-.87-2.79-1.87-5.76-3-9l-.09-.24-.28-.81-.23-.71v.09c.31 1 .77 2.39 1.31 4 .71 2.16 1.39 4.23 2 6.24 2.32 7.38 4 13.7 4.75 19.39.11 1 .2 1.9.26 2.84v.52c0 .547.02 1.087.06 1.62a34.33 34.33 0 0 1-.26 4.57c0 .4-.1.79-.18 1.18a37.17 37.17 0 0 1-2.4 7.64l.12-.25.1-.22a26.24 26.24 0 0 0 2.23-7.23c.06-.35.11-.7.16-1v-.24c.05-.38.09-.76.13-1.14v-.83l.16-.1z" fill="#FBF9FA"/><path d="M143.15 167.12c-4.86 2.76-4.86-1.27-3-5.73 6.34-15.08-7.21-46.2-6.22-46.7a43.06 43.06 0 0 0-3.71-2.79c-3.51-2.35-9.85-6-11.15-6.71a3.22 3.22 0 0 0-1.57 3.56c.36 1.17.88 2.7 1.49 4.45 2.69 7.8 7.11 20.62 6.8 30.87a25.6 25.6 0 0 1-1.58 7.77c-.26.81-.73 1.64-1.13 2.59-.79 1.92-1.38 4 0 5.46l.42.34 3.2 1.82c2.79 1.58 6.47 3.66 9.41 5a12.08 12.08 0 0 0 3.12 1.11 4.63 4.63 0 0 0 1.87-.14 7.35 7.35 0 0 0 1.78-.76l.27-.15v.01z" fill="#F7F3F3"/><path d="M142.43 167.49a6.73 6.73 0 0 1-2 .67h-.05a2.43 2.43 0 0 1-1.28-.14c-1-.5-1.16-1.91-1-3.05l-6.45-3.72-9.11-5.25c-.4 1.43-.45 2.84.53 3.87l.42.34 3.2 1.82c2.79 1.58 6.47 3.66 9.41 5a12.08 12.08 0 0 0 3.12 1.11 4.63 4.63 0 0 0 1.87-.14 6.86 6.86 0 0 0 1.37-.54l-.03.03z" fill="#F3EEEE"/><path d="M133.33 116.78c-.09-.28-.17-.57-.26-.85a1.41 1.41 0 0 1 .89-1.25 43.06 43.06 0 0 0-3.71-2.79c-3.51-2.35-9.85-6-11.15-6.71a3.33 3.33 0 0 0-1.65 2.43l2 1.15 5.13 3 5.13 3 3.64 2.1-.02-.08z" fill="#FBF9FA"/><path d="M144.89 163.87l-1.41.88-.34.21c-1.93 1.13-2.91.91-3.2.43a3.13 3.13 0 0 1 .46-2.37 35 35 0 0 0 2.81-10.19c.83-11.07-4-25-6.85-33.38-.63-1.8-1.15-3.38-1.5-4.53a.72.72 0 0 0-1.08-.29 1.69 1.69 0 0 0-.72 1.94c.35 1.17.9 2.74 1.52 4.58 2.82 8.16 7.56 21.88 6.77 32.55a25.68 25.68 0 0 1-2.54 8.82c-1 2.06-1.11 3.76-.55 4.77.67 1.24 2.43 1.23 4.9-.18l.4-.26 2.33-1.46-1-1.52z" fill="#E9E0E0"/><path d="M170.34 189.42l-1.49-.86a7.94 7.94 0 0 1-.64 2.95 9.18 9.18 0 0 1-3.57 4.34l1.49.86a7.62 7.62 0 0 0 2.28-2 10.59 10.59 0 0 0 1.39-2.39 7.37 7.37 0 0 0 .54-2.87v-.03z" fill="#B0A8A2"/><path fill="#D1CDCA" d="M164.64 195.85l-23.87 13.82 1.45.84 23.91-13.8-1.49-.86z"/><path fill="#B0A8A2" d="M169.96 158.07l-1.49-.86.38 31.35 1.49.86-.38-31.35z"/><path d="M170.2 156.24a20.32 20.32 0 0 0-.25-2.16 15.42 15.42 0 0 0-3.11-7.2 10.91 10.91 0 0 0-3.17-2.77l-1.49-.86c3.28 1.9 5.34 5.31 6.06 10 .115.702.192 1.41.23 2.12v1.83l1.49.87c0-.07.25-1.39.24-1.84v.01z" fill="#9A908A"/><path d="M164.21 143.2c-3.59-2.08-5.78-2.88-10.05-2.57a31.32 31.32 0 0 0-13 4.38c-.74.42-1.48.88-2.21 1.36l1.48.87c.74-.49 1.48-.94 2.22-1.37a40.26 40.26 0 0 1 4.46-2.22 28.73 28.73 0 0 1 7.53-2 18.29 18.29 0 0 1 5.18.09c1.35.205 2.659.62 3.88 1.23l.49.26.02-.03z" fill="#B0A8A2"/><path d="M170.71 158.2v-2.78c0-.67-.19-1.59-.32-2.34-.91-5.22-3.48-8.85-7.53-10.55-5.29-2.24-12.7-1-20.18 3.34-.74.43-1.48.88-2.22 1.37l.06.82c.72-.47 1.44-.92 2.16-1.33 7.31-4.22 14.54-5.45 19.69-3.27 4 1.7 6.56 5.37 7.37 10.67.116.698.19 1.403.22 2.11v1.84l.38 31.34a7.92 7.92 0 0 1-.62 2.9 9.11 9.11 0 0 1-3.59 4.39l-23.91 13.8v.86l23.9-13.8a11 11 0 0 0 5-8.58l-.38-30.79h-.03z" fill="#5A463F"/><path fill="#9A908A" d="M140.45 147.24l-1.48-.87.05.83 1.49.86-.06-.82z"/><path d="M164.15 144.57l-2.93-1.57a11.58 11.58 0 0 1 4.84 5.62l2.79 1.62a11.46 11.46 0 0 0-4.7-5.67zm-16.61-3.48l-.17.89 1.98 1.06-.13.7.86.37.36-1.42-2.9-1.6z" fill="#E1D8D7"/><path d="M159.9 141.87a13 13 0 0 1 4.9 1.38 26 26 0 0 0-5.47-2.76 14.85 14.85 0 0 0-4.51-.63 23 23 0 0 0-6.32.94l-1 .29 2.79 1.62a24.15 24.15 0 0 1 9.57-.84h.04z" fill="#FBF9FA"/><path d="M150.33 142.71l-.25 1.4c8.9-2.84 15.91-.55 18.77 6.13l1-1.07c-3-7-10.3-9.42-19.56-6.46h.04z" fill="#E9E0E0"/><path d="M167 116.44c4.68-1.84 3.84-1.18 6.56-3 1.65-1.09 6.61-4.25 4.55-6.39-.51-.53-.51-.47-2.54-.08-2.03.39-4.29.31-6.38 1.41a12.74 12.74 0 0 0-4.85 5.37l2.66 2.66v.03z" fill="#F1B582"/><path d="M147 98.7c1.51 4.57.17 13.23.19 21.49l-6.83 4.71c-1-.7-1.21-1.39-1.38-4.28-.35-5.83-.89-18.91 0-21.76a5 5 0 0 1 4.02-3.23c2.1-.28 3.42 1.23 4 3.07z" fill="#8CBCE5"/><path d="M142.93 117.54l22.39-6.54c2.34.18 3.23 4.76 1.76 6l-21.69 8.65c-2.8.47-4.6 0-5.56-1.11-2.24-2.64.78-5.74 3.1-7z" fill="#8CBCE5"/><path d="M144.58 125.6a4.51 4.51 0 0 1-4.19-.7c-1-.7-1.15-1.39-1.38-4.28-.27-3.31-1.12-9.6-1.14-14.83 0-2.82 0-5.21 1-6.93 1.14-2 3-3.43 4.62-3.5h.28c-.2 7.49-1.57 19.18-.69 26.72.08.63.12 2.82 1.52 3.51l-.02.01zm1.5-6.6a10.87 10.87 0 0 1 2.43-3l16.81-5a2.53 2.53 0 0 1 2 1.63L146.08 119z" fill="#7FB2E0"/></g></svg>